if (_typeface_js && _typeface_js.loadFace) _typeface_js.loadFace({"glyphs":{"\u0000":{"x_min":0,"x_max":0,"ha":758},"¦":{"x_min":269,"x_max":363,"ha":758,"o":"m 363 -126 l 269 -126 l 269 379 l 363 379 l 363 -126 m 363 505 l 269 505 l 269 1011 l 363 1011 l 363 505 "},"Á":{"x_min":-40.015625,"x_max":674.828125,"ha":758,"o":"m 674 0 l 575 0 l 491 253 l 141 253 l 59 0 l -40 0 l 254 885 l 380 885 l 674 0 m 465 335 l 316 791 l 168 335 l 465 335 m 482 1102 l 189 938 l 164 982 l 437 1177 l 482 1102 "},"е":{"x_min":-2.71875,"x_max":638.890625,"ha":758,"o":"m 92 284 q 166 123 103 183 q 330 63 229 63 q 457 92 401 63 q 540 164 512 121 l 605 119 q 492 18 558 53 q 330 -16 426 -16 q 196 8 257 -16 q 90 76 134 32 q 21 180 46 120 q -2 315 -2 241 q 19 447 -2 387 q 83 553 41 508 q 184 622 124 597 q 318 647 244 647 q 459 619 398 647 q 559 545 519 592 q 619 430 600 497 q 638 284 638 364 l 92 284 m 540 363 q 465 517 524 466 q 318 568 405 568 q 235 553 273 568 q 168 511 197 538 q 119 446 139 484 q 94 363 99 408 l 540 363 "},"Î":{"x_min":115.296875,"x_max":518.15625,"ha":758,"o":"m 505 0 l 125 0 l 125 79 l 269 79 l 269 806 l 125 806 l 125 885 l 505 885 l 505 806 l 363 806 l 363 79 l 505 79 l 505 0 m 518 985 l 482 940 l 318 1079 l 151 938 l 115 982 l 316 1180 l 518 985 "},"e":{"x_min":-2.71875,"x_max":638.890625,"ha":758,"o":"m 92 284 q 166 123 103 183 q 330 63 229 63 q 457 92 401 63 q 540 164 512 121 l 605 119 q 492 18 558 53 q 330 -16 426 -16 q 196 8 257 -16 q 90 76 134 32 q 21 180 46 120 q -2 315 -2 241 q 19 447 -2 387 q 83 553 41 508 q 184 622 124 597 q 318 647 244 647 q 459 619 398 647 q 559 545 519 592 q 619 430 600 497 q 638 284 638 364 l 92 284 m 540 363 q 465 517 524 466 q 318 568 405 568 q 235 553 273 568 q 168 511 197 538 q 119 446 139 484 q 94 363 99 408 l 540 363 "},"»":{"x_min":95.625,"x_max":623.96875,"ha":758,"o":"m 623 323 l 401 102 l 348 154 l 516 323 l 348 493 l 401 546 l 623 323 m 369 323 l 149 102 l 95 154 l 263 323 l 95 493 l 149 546 l 369 323 "},"∆":{"x_min":-40.015625,"x_max":674.828125,"ha":758,"o":"m 674 0 l -40 0 l 254 885 l 380 885 l 674 0 m 548 79 l 316 789 l 84 79 l 548 79 "},"Ѓ":{"x_min":33,"x_max":631.953125,"ha":758,"o":"m 33 885 l 631 885 l 631 806 l 126 806 l 126 0 l 33 0 l 33 885 m 482 1103 l 189 939 l 164 983 l 437 1178 l 482 1103 "},"ў":{"x_min":-21.03125,"x_max":651.765625,"ha":758,"o":"m 651 632 l 309 -160 q 235 -247 283 -226 q 128 -268 187 -268 q -1 -244 63 -268 l 16 -163 q 79 -183 48 -177 q 128 -189 109 -189 q 192 -166 174 -189 q 222 -113 209 -144 l 261 -18 l -21 632 l 88 632 l 316 79 l 540 632 l 651 632 m 510 820 q 316 742 430 742 q 123 820 202 742 l 176 872 q 316 808 240 808 q 457 872 393 808 l 510 820 "},"ò":{"x_min":-14,"x_max":648,"ha":758,"o":"m 648 313 q 624 179 648 239 q 557 75 601 119 q 452 8 513 32 q 316 -16 391 -16 q 181 8 242 -16 q 76 75 120 32 q 9 179 32 119 q -14 313 -14 239 q 9 447 -14 385 q 76 553 32 509 q 181 622 120 597 q 316 647 242 647 q 452 622 391 647 q 557 553 513 597 q 624 447 601 509 q 648 313 648 385 m 555 313 q 539 413 555 367 q 491 494 523 459 q 416 548 460 528 q 316 568 371 568 q 216 548 260 568 q 141 494 171 528 q 94 413 110 459 q 79 313 79 367 q 94 213 79 259 q 141 134 110 167 q 216 82 171 101 q 316 63 260 63 q 416 82 371 63 q 491 134 460 101 q 539 213 523 167 q 555 313 555 259 m 474 730 l 446 686 l 155 850 l 200 925 l 474 730 "},"^":{"x_min":1.359375,"x_max":633.453125,"ha":758,"o":"m 633 379 l 530 379 l 316 794 l 104 379 l 1 379 l 254 885 l 379 885 l 633 379 "},"«":{"x_min":9.5,"x_max":534.4375,"ha":758,"o":"m 534 155 l 482 102 l 261 323 l 482 547 l 534 492 l 368 323 l 534 155 m 283 155 l 229 102 l 9 323 l 229 547 l 283 492 l 115 323 l 283 155 "},"к":{"x_min":33,"x_max":630.59375,"ha":758,"o":"m 630 0 l 498 0 l 239 283 l 126 179 l 126 0 l 33 0 l 33 632 l 126 632 l 126 291 l 486 632 l 619 632 l 302 341 l 630 0 "},"í":{"x_min":126,"x_max":504.4375,"ha":758,"o":"m 504 0 l 126 0 l 126 79 l 268 79 l 268 550 l 126 550 l 126 632 l 362 632 l 362 79 l 504 79 l 504 0 m 482 849 l 189 685 l 164 729 l 437 924 l 482 849 "},"µ":{"x_min":33,"x_max":599,"ha":758,"o":"m 599 0 l 505 0 l 505 160 q 266 -16 439 -16 q 126 21 182 -16 l 126 -253 l 33 -253 l 33 632 l 126 632 l 126 242 q 162 110 126 157 q 281 63 199 63 q 374 86 333 63 q 445 150 416 110 q 489 241 474 189 q 505 348 505 292 l 505 632 l 599 632 l 599 0 "},"-":{"x_min":0,"x_max":632.109375,"ha":758,"o":"m 632 285 l 0 285 l 0 364 l 632 364 l 632 285 "},"ѕ":{"x_min":-7.015625,"x_max":615,"ha":758,"o":"m 615 174 q 587 82 615 118 q 515 24 559 45 q 417 -6 471 2 q 312 -16 363 -16 q 140 8 226 -16 q -7 74 55 33 l 34 154 q 172 86 104 110 q 312 63 239 63 q 522 171 522 63 q 504 214 522 198 q 458 241 487 231 q 391 258 429 252 q 312 270 353 264 q 207 287 259 277 q 112 318 155 297 q 43 372 69 338 q 17 462 17 406 q 41 544 17 509 q 105 602 65 579 q 200 636 145 625 q 312 647 254 647 q 461 627 396 647 q 580 572 527 608 l 543 499 q 433 552 489 537 q 312 568 377 568 q 248 562 283 568 q 181 545 212 557 q 130 512 151 532 q 110 462 110 492 q 127 419 110 435 q 173 393 144 403 q 240 376 202 382 q 319 365 278 370 q 423 347 370 357 q 519 317 476 337 q 588 264 562 298 q 615 174 615 230 "},"Q":{"x_min":-22,"x_max":656,"ha":758,"o":"m 656 441 q 639 278 656 356 q 588 138 623 200 q 495 36 552 76 q 357 -12 438 -3 q 420 -138 373 -103 q 559 -173 467 -173 q 599 -172 582 -173 q 631 -170 615 -171 l 631 -249 q 593 -251 611 -250 q 559 -252 575 -252 q 350 -192 420 -252 q 265 -11 280 -133 q 135 37 190 -1 q 46 136 80 76 q -5 275 11 197 q -22 441 -22 353 q -4 613 -22 530 q 54 759 13 695 q 160 861 95 823 q 317 900 225 900 q 473 861 408 900 q 578 759 538 823 q 637 613 618 695 q 656 441 656 530 m 562 441 q 550 576 562 508 q 511 698 538 643 q 435 787 483 753 q 316 821 387 821 q 197 787 244 821 q 121 698 150 753 q 82 576 93 643 q 71 441 71 508 q 135 164 71 265 q 316 64 199 64 q 497 164 433 64 q 562 441 562 265 "},"Ш":{"x_min":0,"x_max":632,"ha":758,"o":"m 269 885 l 363 885 l 363 79 l 539 79 l 539 885 l 632 885 l 632 0 l 0 0 l 0 885 l 93 885 l 93 79 l 269 79 l 269 885 "},"M":{"x_min":33,"x_max":599,"ha":758,"o":"m 599 0 l 505 0 l 505 737 l 348 280 l 281 280 l 126 737 l 126 0 l 33 0 l 33 885 l 153 885 l 315 422 l 478 885 l 599 885 l 599 0 "},"ј":{"x_min":2.640625,"x_max":505,"ha":758,"o":"m 505 758 l 379 758 l 379 885 l 505 885 l 505 758 m 235 -268 q 2 -130 69 -268 l 73 -81 q 137 -161 98 -133 q 235 -189 177 -189 q 313 -175 282 -189 q 362 -138 344 -162 q 388 -79 380 -113 q 396 0 396 -44 l 396 553 l 252 553 l 252 632 l 489 632 l 489 0 q 424 -195 489 -122 q 235 -268 360 -268 "},"{":{"x_min":126.171875,"x_max":504,"ha":758,"o":"m 504 -253 l 441 -253 q 365 -238 400 -253 q 305 -198 330 -223 q 266 -138 280 -173 q 253 -60 253 -102 l 253 226 q 126 341 253 341 l 126 416 q 253 529 253 416 l 253 821 q 266 898 253 863 q 305 958 280 932 q 365 997 330 983 q 441 1011 400 1011 l 504 1011 l 504 936 l 441 936 q 326 822 326 936 l 326 530 q 317 482 326 507 q 293 435 308 457 q 256 397 277 413 q 209 377 234 381 q 255 358 234 373 q 292 321 276 343 q 317 275 308 299 q 326 226 326 250 l 326 -60 q 441 -176 326 -176 l 504 -176 l 504 -253 "},"¼":{"x_min":0.140625,"x_max":632.40625,"ha":758,"o":"m 632 862 l 65 -18 l 1 22 l 570 905 l 632 862 m 264 506 l 67 506 l 67 567 l 129 567 l 129 763 q 82 703 115 728 q 0 678 50 678 l 0 745 q 43 755 21 745 q 85 783 66 764 q 116 826 104 801 q 129 885 129 852 l 203 885 l 203 567 l 264 567 l 264 506 m 632 0 l 437 0 l 437 61 l 500 61 l 500 102 l 330 102 l 330 152 l 496 379 l 571 379 l 571 164 l 632 164 l 632 102 l 571 102 l 571 61 l 632 61 l 632 0 m 500 164 l 499 271 l 419 164 l 500 164 "},"#":{"x_min":0.109375,"x_max":631.890625,"ha":758,"o":"m 631 150 l 482 150 l 482 1 l 403 1 l 403 150 l 229 150 l 229 1 l 150 1 l 150 150 l 0 150 l 0 225 l 150 225 l 150 404 l 0 404 l 0 478 l 150 478 l 150 633 l 229 633 l 229 478 l 403 478 l 403 633 l 482 633 l 482 478 l 631 478 l 631 404 l 482 404 l 482 225 l 631 225 l 631 150 m 403 225 l 403 404 l 229 404 l 229 225 l 403 225 "},"Ê":{"x_min":33,"x_max":598.71875,"ha":758,"o":"m 598 0 l 33 0 l 33 885 l 598 885 l 598 806 l 126 806 l 126 489 l 474 489 l 474 410 l 126 410 l 126 79 l 598 79 l 598 0 m 518 985 l 482 940 l 318 1079 l 151 938 l 115 982 l 316 1180 l 518 985 "},"Џ":{"x_min":33,"x_max":599,"ha":758,"o":"m 599 0 l 363 0 l 363 -216 l 269 -216 l 269 0 l 33 0 l 33 885 l 126 885 l 126 79 l 505 79 l 505 885 l 599 885 l 599 0 "},")":{"x_min":155.359375,"x_max":507,"ha":758,"o":"m 507 382 q 486 202 507 291 q 427 31 466 113 q 332 -122 388 -50 q 204 -252 276 -195 l 155 -190 q 270 -73 219 -139 q 356 65 320 -8 q 410 220 392 140 q 428 382 428 300 q 410 546 428 464 q 356 701 392 627 q 270 841 320 776 q 155 957 219 906 l 204 1019 q 332 889 276 962 q 427 735 388 817 q 486 564 466 654 q 507 382 507 474 "},"э":{"x_min":23.734375,"x_max":632.109375,"ha":758,"o":"m 189 363 l 534 363 q 459 510 520 452 q 298 568 398 568 q 172 540 227 568 q 88 466 118 512 l 23 511 q 133 610 63 573 q 298 647 202 647 q 434 622 372 647 q 539 555 495 598 q 607 449 583 511 q 632 315 632 388 q 607 180 632 241 q 539 76 583 120 q 434 8 495 32 q 298 -16 372 -16 q 133 20 202 -16 q 23 118 63 56 l 88 163 q 172 90 118 117 q 298 63 227 63 q 465 125 402 63 q 537 284 527 187 l 189 284 l 189 363 "},"Å":{"x_min":-40.34375,"x_max":674.5,"ha":758,"o":"m 163 983 q 175 1043 163 1015 q 207 1091 186 1070 q 256 1124 228 1112 q 316 1136 284 1136 q 376 1124 348 1136 q 424 1091 403 1112 q 457 1043 445 1070 q 469 983 469 1015 q 447 904 469 938 q 391 849 426 869 l 674 0 l 574 0 l 491 253 l 141 253 l 59 0 l -40 0 l 241 848 q 185 903 206 868 q 163 983 163 938 m 464 335 l 316 791 l 167 335 l 464 335 m 224 983 q 252 919 224 946 q 316 892 279 892 q 380 919 353 892 q 408 983 408 946 q 380 1047 408 1020 q 316 1075 353 1075 q 252 1047 279 1075 q 224 983 224 1020 "},"ш":{"x_min":0,"x_max":632,"ha":758,"o":"m 269 632 l 363 632 l 363 79 l 539 79 l 539 632 l 632 632 l 632 0 l 0 0 l 0 632 l 93 632 l 93 79 l 269 79 l 269 632 "},"Я":{"x_min":-9,"x_max":599,"ha":758,"o":"m 258 383 q 155 406 202 387 q 73 456 108 425 q 20 531 39 487 q 1 631 1 576 q 81 821 1 758 q 307 885 161 885 l 599 885 l 599 0 l 505 0 l 505 379 l 367 379 l 109 0 l -9 0 l 258 383 m 97 632 q 153 499 97 540 q 307 458 209 458 l 505 458 l 505 806 l 307 806 q 153 764 209 806 q 97 632 97 722 "},"¸":{"x_min":164,"x_max":380,"ha":758,"o":"m 380 -27 q 323 -187 380 -127 q 164 -252 263 -252 l 164 -172 q 301 -27 301 -172 l 301 0 l 380 0 l 380 -27 "},"a":{"x_min":-1,"x_max":599,"ha":758,"o":"m -1 170 q 28 270 -1 230 q 107 334 58 311 q 218 368 155 357 q 345 379 280 379 q 390 378 370 379 q 428 376 410 377 q 465 372 446 374 q 505 368 483 370 l 505 413 q 484 489 505 459 q 435 536 464 519 q 374 560 406 553 q 320 568 342 568 q 190 549 249 568 q 79 498 130 530 l 37 568 q 164 624 93 602 q 320 647 235 647 q 421 633 372 647 q 511 593 471 620 q 575 520 551 565 q 599 413 599 476 l 599 0 l 505 0 l 505 105 q 450 51 481 74 q 385 14 419 28 q 317 -8 351 0 q 253 -16 283 -16 q 63 32 127 -16 q -1 170 -1 80 m 253 63 q 357 80 311 63 q 436 123 404 97 q 487 178 469 149 q 505 232 505 208 l 505 292 q 418 299 459 298 q 345 300 376 300 q 249 293 295 300 q 168 271 203 286 q 112 231 133 255 q 92 170 92 206 q 130 96 92 130 q 253 63 169 63 "},"=":{"x_min":0,"x_max":632.109375,"ha":758,"o":"m 632 433 l 0 433 l 0 514 l 632 514 l 632 433 m 632 135 l 0 135 l 0 214 l 632 214 l 632 135 "},"Ћ":{"x_min":-93.15625,"x_max":599,"ha":758,"o":"m -93 885 l 252 885 l 252 806 l 126 806 l 125 473 q 365 647 193 647 q 599 389 599 647 l 599 0 l 505 0 l 505 389 q 468 521 505 474 q 349 568 431 568 q 256 544 298 568 q 185 480 214 520 q 141 390 156 441 q 126 283 126 338 l 126 0 l 33 0 l 33 806 l -93 806 l -93 885 "},"ú":{"x_min":33,"x_max":599,"ha":758,"o":"m 33 632 l 126 632 l 126 240 q 162 109 126 156 q 281 63 199 63 q 374 86 333 63 q 445 150 416 110 q 489 241 474 189 q 505 348 505 292 l 505 632 l 599 632 l 599 0 l 505 0 l 505 157 q 266 -16 438 -16 q 33 241 33 -16 l 33 632 m 482 850 l 189 686 l 164 730 l 437 925 l 482 850 "},"д":{"x_min":0,"x_max":632,"ha":758,"o":"m 0 79 q 61 116 31 86 q 111 198 90 145 q 146 327 133 251 q 160 501 160 402 l 160 632 l 505 632 l 505 79 l 632 79 l 632 -216 l 549 -216 l 549 0 l 83 0 l 83 -216 l 0 -216 l 0 79 m 253 501 q 241 353 253 422 q 212 230 230 284 q 171 137 194 176 q 126 79 148 98 l 412 79 l 412 553 l 253 553 l 253 501 "},"¯":{"x_min":126.15625,"x_max":505.28125,"ha":758,"o":"m 505 750 l 126 750 l 126 827 l 505 827 l 505 750 "},"Z":{"x_min":33,"x_max":601,"ha":758,"o":"m 601 0 l 33 0 l 33 79 l 477 806 l 112 806 l 112 588 l 33 588 l 33 885 l 587 885 l 587 805 l 146 79 l 522 79 l 522 299 l 601 299 l 601 0 "},"u":{"x_min":33,"x_max":599,"ha":758,"o":"m 33 632 l 126 632 l 126 240 q 162 109 126 156 q 281 63 199 63 q 374 86 333 63 q 445 150 416 110 q 489 241 474 189 q 505 348 505 292 l 505 632 l 599 632 l 599 0 l 505 0 l 505 157 q 266 -16 438 -16 q 33 241 33 -16 l 33 632 "},"k":{"x_min":33,"x_max":630.59375,"ha":758,"o":"m 630 0 l 498 0 l 239 283 l 126 179 l 126 0 l 33 0 l 33 885 l 126 885 l 126 291 l 486 632 l 619 632 l 302 341 l 630 0 "},"Ù":{"x_min":33,"x_max":599,"ha":758,"o":"m 599 315 q 582 178 599 239 q 530 74 565 117 q 442 7 495 31 q 315 -16 388 -16 q 188 7 241 -16 q 100 74 134 31 q 49 179 66 117 q 33 316 33 241 l 33 885 l 126 885 l 126 314 q 133 229 126 274 q 160 148 140 185 q 218 87 181 111 q 315 63 255 63 q 412 87 374 63 q 470 148 450 111 q 498 229 491 185 q 505 314 505 274 l 505 885 l 599 885 l 599 315 m 474 983 l 446 939 l 155 1103 l 200 1178 l 474 983 "},"З":{"x_min":17.796875,"x_max":624,"ha":758,"o":"m 624 243 q 600 137 624 185 q 536 55 576 89 q 445 2 497 21 q 336 -16 393 -16 q 216 1 272 -16 q 118 52 160 18 q 49 138 76 87 q 17 256 23 189 l 108 268 q 179 114 116 166 q 335 63 241 63 q 411 76 375 63 q 473 113 446 90 q 514 171 499 137 q 530 243 530 204 q 513 332 530 298 q 463 386 496 366 q 382 412 430 405 q 271 419 334 419 l 271 498 q 360 505 317 498 q 438 531 404 512 q 492 579 471 549 q 514 655 514 610 q 464 775 514 730 q 335 821 414 821 q 250 803 291 821 q 180 758 209 786 q 135 695 153 733 q 117 605 117 657 l 33 605 l 33 885 l 112 885 l 112 781 q 153 837 128 815 q 208 873 178 859 q 270 893 238 887 q 336 900 303 900 q 442 883 393 900 q 528 835 492 866 q 585 758 564 804 q 607 655 607 713 q 562 530 607 579 q 433 467 517 480 q 515 440 480 460 q 575 389 551 420 q 611 322 599 359 q 624 243 624 284 "},"¢":{"x_min":5,"x_max":613.953125,"ha":758,"o":"m 269 115 q 76 224 148 137 q 5 441 5 311 q 23 559 5 505 q 77 657 42 614 q 160 727 112 699 q 269 766 209 755 l 269 885 l 363 885 l 363 772 q 512 731 449 767 q 613 637 575 695 l 548 592 q 473 661 521 634 q 363 693 425 688 l 363 189 q 473 221 425 194 q 548 290 521 247 l 613 245 q 512 151 575 187 q 363 109 449 115 l 363 0 l 269 0 l 269 115 m 98 441 q 142 285 98 351 q 269 197 186 219 l 269 684 q 142 597 186 663 q 98 441 98 531 "},"é":{"x_min":-2.71875,"x_max":638.890625,"ha":758,"o":"m 92 284 q 166 123 103 183 q 330 63 229 63 q 457 92 401 63 q 540 164 512 121 l 605 119 q 492 18 558 53 q 330 -16 426 -16 q 196 8 257 -16 q 90 76 134 32 q 21 180 46 120 q -2 315 -2 241 q 19 447 -2 387 q 83 553 41 508 q 184 622 124 597 q 318 647 244 647 q 459 619 398 647 q 559 545 519 592 q 619 430 600 497 q 638 284 638 364 l 92 284 m 540 363 q 465 517 524 466 q 318 568 405 568 q 235 553 273 568 q 168 511 197 538 q 119 446 139 484 q 94 363 99 408 l 540 363 m 482 849 l 189 685 l 164 729 l 437 924 l 482 849 "},"B":{"x_min":33,"x_max":631,"ha":758,"o":"m 631 252 q 548 63 631 126 q 315 0 466 0 l 33 0 l 33 885 l 299 885 q 408 875 355 885 q 504 841 462 866 q 573 772 547 816 q 600 655 600 727 q 462 467 600 518 q 631 252 631 416 m 507 655 q 487 732 507 702 q 437 778 467 762 q 370 800 406 794 q 299 806 333 806 l 126 806 l 126 505 l 299 505 q 374 510 337 505 q 439 533 410 516 q 488 579 469 549 q 507 655 507 608 m 538 252 q 478 386 538 344 q 315 428 419 428 l 126 428 l 126 79 l 315 79 q 478 122 419 79 q 538 252 538 166 "},"В":{"x_min":33,"x_max":631,"ha":758,"o":"m 631 252 q 548 63 631 126 q 315 0 466 0 l 33 0 l 33 885 l 299 885 q 408 875 355 885 q 504 841 462 866 q 573 772 547 816 q 600 655 600 727 q 462 467 600 518 q 631 252 631 416 m 507 655 q 487 732 507 702 q 437 778 467 762 q 370 800 406 794 q 299 806 333 806 l 126 806 l 126 505 l 299 505 q 374 510 337 505 q 439 533 410 516 q 488 579 469 549 q 507 655 507 608 m 538 252 q 478 386 538 344 q 315 428 419 428 l 126 428 l 126 79 l 315 79 q 478 122 419 79 q 538 252 538 166 "},"І":{"x_min":125.90625,"x_max":505.4375,"ha":758,"o":"m 505 0 l 125 0 l 125 79 l 269 79 l 269 806 l 125 806 l 125 885 l 505 885 l 505 806 l 363 806 l 363 79 l 505 79 l 505 0 "},"H":{"x_min":33,"x_max":599,"ha":758,"o":"m 599 0 l 505 0 l 505 410 l 126 410 l 126 0 l 33 0 l 33 885 l 126 885 l 126 489 l 505 489 l 505 885 l 599 885 l 599 0 "},"î":{"x_min":115.296875,"x_max":518.15625,"ha":758,"o":"m 504 0 l 126 0 l 126 79 l 268 79 l 268 550 l 126 550 l 126 632 l 362 632 l 362 79 l 504 79 l 504 0 m 518 732 l 482 687 l 318 826 l 151 685 l 115 729 l 316 927 l 518 732 "},"−":{"x_min":0,"x_max":632.109375,"ha":758,"o":"m 632 285 l 0 285 l 0 364 l 632 364 l 632 285 "},"≠":{"x_min":0,"x_max":632.109375,"ha":758,"o":"m 632 127 l 262 127 l 201 0 l 126 0 l 187 127 l 0 127 l 0 202 l 223 202 l 333 431 l 0 431 l 0 506 l 369 506 l 430 632 l 505 632 l 444 506 l 632 506 l 632 431 l 408 431 l 298 202 l 632 202 l 632 127 "},"¥":{"x_min":-0.609375,"x_max":632.265625,"ha":758,"o":"m 632 276 l 363 276 l 363 0 l 270 0 l 270 276 l 0 276 l 0 358 l 270 358 l 270 381 l 196 528 l 0 528 l 0 610 l 154 610 l 16 885 l 120 885 l 316 480 l 317 480 l 514 885 l 618 885 l 479 610 l 632 610 l 632 528 l 437 528 l 363 381 l 363 358 l 632 358 l 632 276 "},"␣":{"x_min":49,"x_max":583,"ha":758,"o":"m 583 0 l 49 0 l 49 206 l 124 206 l 124 75 l 508 75 l 508 206 l 583 206 l 583 0 "},"U":{"x_min":33,"x_max":599,"ha":758,"o":"m 599 315 q 582 178 599 239 q 530 74 565 117 q 442 7 495 31 q 315 -16 388 -16 q 188 7 241 -16 q 100 74 134 31 q 49 179 66 117 q 33 316 33 241 l 33 885 l 126 885 l 126 314 q 133 229 126 274 q 160 148 140 185 q 218 87 181 111 q 315 63 255 63 q 412 87 374 63 q 470 148 450 111 q 498 229 491 185 q 505 314 505 274 l 505 885 l 599 885 l 599 315 "},"Ñ":{"x_min":33,"x_max":599,"ha":758,"o":"m 599 0 l 483 0 l 126 748 l 126 0 l 33 0 l 33 885 l 163 885 l 505 170 l 505 885 l 599 885 l 599 0 m 573 1085 q 406 979 512 979 q 343 991 368 979 q 300 1018 319 1003 q 263 1045 282 1033 q 219 1058 245 1058 q 107 982 149 1058 l 52 1014 q 219 1120 115 1120 q 282 1107 258 1120 q 325 1080 307 1095 q 362 1053 344 1065 q 406 1041 380 1041 q 519 1117 476 1041 l 573 1085 "},"F":{"x_min":33,"x_max":598.71875,"ha":758,"o":"m 598 806 l 126 806 l 126 489 l 474 489 l 474 410 l 126 410 l 126 0 l 33 0 l 33 885 l 598 885 l 598 806 "},"*":{"x_min":23.734375,"x_max":608.359375,"ha":758,"o":"m 608 442 l 376 317 l 608 189 l 571 125 l 345 263 l 355 1 l 276 1 l 286 263 l 61 125 l 23 189 l 255 317 l 23 442 l 61 507 l 286 368 l 276 633 l 355 633 l 345 368 l 571 507 l 608 442 "},"Ќ":{"x_min":33,"x_max":627.875,"ha":758,"o":"m 627 0 l 513 0 l 219 433 l 126 328 l 126 0 l 33 0 l 33 885 l 126 885 l 126 454 l 505 885 l 627 885 l 280 498 l 627 0 m 482 1103 l 189 939 l 164 983 l 437 1178 l 482 1103 "},"°":{"x_min":0,"x_max":505,"ha":758,"o":"m 0 758 q 20 856 0 809 q 74 936 40 902 q 154 990 108 970 q 252 1011 199 1011 q 350 990 304 1011 q 431 936 397 970 q 485 856 465 902 q 505 758 505 809 q 485 659 505 705 q 431 579 465 613 q 350 525 397 545 q 252 505 304 505 q 154 525 199 505 q 74 579 108 545 q 20 659 40 613 q 0 758 0 705 m 62 758 q 76 683 62 718 q 117 623 91 649 q 178 582 144 597 q 252 568 212 568 q 326 582 291 568 q 387 623 360 597 q 428 683 413 649 q 443 758 443 718 q 428 832 443 797 q 387 893 413 866 q 326 934 360 919 q 252 949 291 949 q 178 934 212 949 q 117 893 144 919 q 76 832 91 866 q 62 758 62 797 "},"å":{"x_min":0,"x_max":600,"ha":758,"o":"m 0 170 q 29 270 0 230 q 108 334 59 311 q 219 368 156 357 q 346 379 281 379 q 391 378 371 379 q 429 376 411 377 q 466 372 447 374 q 506 368 484 370 l 506 413 q 485 489 506 459 q 436 536 465 519 q 375 560 407 553 q 321 568 343 568 q 191 549 250 568 q 80 498 131 530 l 38 568 q 165 624 94 602 q 321 647 236 647 q 422 633 373 647 q 512 593 472 620 q 576 520 552 565 q 600 413 600 476 l 600 0 l 506 0 l 506 105 q 451 51 482 74 q 386 14 420 28 q 318 -8 352 0 q 254 -16 284 -16 q 64 32 128 -16 q 0 170 0 80 m 254 63 q 358 80 312 63 q 437 123 405 97 q 488 178 470 149 q 506 232 506 208 l 506 292 q 419 299 460 298 q 346 300 377 300 q 250 293 296 300 q 169 271 204 286 q 113 231 134 255 q 93 170 93 206 q 131 96 93 130 q 254 63 170 63 m 163 851 q 175 911 163 884 q 207 960 186 939 q 256 993 228 981 q 316 1005 284 1005 q 376 993 348 1005 q 424 960 403 981 q 457 911 445 939 q 469 851 469 884 q 457 791 469 819 q 424 743 445 764 q 376 710 403 722 q 316 699 348 699 q 256 710 284 699 q 207 743 228 722 q 175 791 186 764 q 163 851 163 819 m 224 851 q 252 787 224 814 q 316 760 279 760 q 380 787 353 760 q 408 851 408 814 q 380 916 408 889 q 316 944 353 944 q 252 916 279 944 q 224 851 224 889 "},"0":{"x_min":-22,"x_max":656,"ha":758,"o":"m 71 441 q 94 256 71 343 l 509 694 q 428 788 476 755 q 317 821 380 821 q 134 719 197 821 q 71 441 71 617 m 126 182 q 316 63 193 63 q 497 164 433 63 q 562 441 562 265 q 556 534 562 490 q 539 617 550 577 l 126 182 m -22 441 q -3 612 -22 530 q 55 759 15 695 q 160 861 95 823 q 317 900 225 900 q 473 861 408 900 q 578 759 538 823 q 637 612 619 695 q 656 441 656 530 q 637 269 656 352 q 579 123 619 186 q 474 22 539 60 q 317 -16 409 -16 q 159 22 224 -16 q 54 123 94 60 q -4 269 13 186 q -22 441 -22 352 "},"ö":{"x_min":-14,"x_max":648,"ha":758,"o":"m 648 313 q 624 179 648 239 q 557 75 601 119 q 452 8 513 32 q 316 -16 391 -16 q 181 8 242 -16 q 76 75 120 32 q 9 179 32 119 q -14 313 -14 239 q 9 447 -14 385 q 76 553 32 509 q 181 622 120 597 q 316 647 242 647 q 452 622 391 647 q 557 553 513 597 q 624 447 601 509 q 648 313 648 385 m 555 313 q 539 413 555 367 q 491 494 523 459 q 416 548 460 528 q 316 568 371 568 q 216 548 260 568 q 141 494 171 528 q 94 413 110 459 q 79 313 79 367 q 94 213 79 259 q 141 134 110 167 q 216 82 171 101 q 316 63 260 63 q 416 82 371 63 q 491 134 460 101 q 539 213 523 167 q 555 313 555 259 m 505 758 l 379 758 l 379 885 l 505 885 l 505 758 m 252 758 l 126 758 l 126 885 l 252 885 l 252 758 "},"Õ":{"x_min":-22,"x_max":656,"ha":758,"o":"m 656 441 q 637 269 656 352 q 579 123 619 186 q 474 22 539 60 q 317 -16 409 -16 q 159 22 224 -16 q 54 123 94 60 q -4 269 13 186 q -22 441 -22 352 q -4 612 -22 530 q 54 759 13 695 q 160 861 95 823 q 317 900 225 900 q 473 861 408 900 q 578 759 538 823 q 637 612 618 695 q 656 441 656 530 m 562 441 q 545 599 562 528 q 497 719 528 669 q 420 794 466 768 q 316 821 375 821 q 197 787 244 821 q 121 698 150 753 q 82 575 93 643 q 71 441 71 508 q 82 307 71 374 q 121 185 93 239 q 197 97 150 131 q 316 63 244 63 q 436 97 388 63 q 511 185 483 131 q 551 307 540 239 q 562 441 562 374 m 573 1085 q 406 979 512 979 q 343 991 368 979 q 300 1018 319 1003 q 263 1045 282 1033 q 219 1058 245 1058 q 107 982 149 1058 l 52 1014 q 219 1120 115 1120 q 282 1107 258 1120 q 325 1080 307 1095 q 362 1053 344 1065 q 406 1041 380 1041 q 519 1117 476 1041 l 573 1085 "},"þ":{"x_min":33,"x_max":633,"ha":758,"o":"m 633 315 q 610 181 633 241 q 547 76 588 120 q 446 7 506 31 q 312 -17 386 -17 q 126 49 210 -17 l 126 -253 l 33 -253 l 33 885 l 126 885 l 125 581 q 312 647 210 647 q 443 623 384 647 q 545 557 503 600 q 609 453 586 514 q 633 315 633 391 m 539 315 q 524 418 539 371 q 482 498 509 464 q 411 552 454 532 q 312 572 368 572 q 126 485 206 572 l 126 145 q 312 58 206 58 q 411 77 368 58 q 482 131 454 96 q 524 214 509 166 q 539 315 539 261 "},"]":{"x_min":126,"x_max":379,"ha":758,"o":"m 379 -253 l 126 -253 l 126 -176 l 304 -176 l 304 936 l 126 936 l 126 1011 l 379 1011 l 379 -253 "},"А":{"x_min":-40.015625,"x_max":674.828125,"ha":758,"o":"m 674 0 l 575 0 l 491 253 l 141 253 l 59 0 l -40 0 l 254 885 l 380 885 l 674 0 m 465 335 l 316 791 l 168 335 l 465 335 "},"Ы":{"x_min":0,"x_max":632,"ha":758,"o":"m 0 885 l 93 885 l 93 505 l 184 505 q 354 441 294 505 q 415 250 415 377 q 354 61 415 123 q 183 0 294 0 l 0 0 l 0 885 m 322 249 q 285 380 322 335 q 185 426 248 426 l 93 426 l 93 79 l 185 79 q 285 122 248 79 q 322 249 322 165 m 539 885 l 632 885 l 632 0 l 539 0 l 539 885 "},"8":{"x_min":-5,"x_max":639,"ha":758,"o":"m 639 248 q 613 129 639 178 q 545 47 588 80 q 442 0 501 15 q 317 -16 383 -16 q 190 0 249 -16 q 88 47 132 15 q 20 129 45 80 q -5 248 -5 178 q 8 321 -5 284 q 46 389 21 357 q 106 441 70 421 q 184 467 142 462 q 118 492 147 471 q 69 539 89 512 q 38 598 49 566 q 27 659 27 630 q 50 764 27 719 q 114 839 74 809 q 207 884 154 869 q 317 900 260 900 q 426 884 373 900 q 519 839 479 869 q 583 764 559 809 q 607 659 607 719 q 595 598 607 630 q 564 539 584 566 q 514 492 544 512 q 447 467 485 471 q 525 441 490 462 q 586 389 561 421 q 625 321 611 357 q 639 248 639 284 m 514 659 q 461 777 514 734 q 317 821 408 821 q 172 777 225 821 q 120 659 120 734 q 170 548 120 589 q 317 507 220 507 q 463 548 413 507 q 514 659 514 589 m 546 248 q 527 331 546 296 q 476 386 508 365 q 403 418 444 408 q 317 428 363 428 q 230 418 270 428 q 157 386 189 408 q 106 331 125 365 q 88 248 88 296 q 106 166 88 200 q 157 108 125 131 q 230 74 189 85 q 317 63 270 63 q 403 74 363 63 q 476 108 444 85 q 527 166 508 131 q 546 248 546 200 "},"R":{"x_min":33,"x_max":640,"ha":758,"o":"m 640 0 l 522 0 l 263 379 l 126 379 l 126 0 l 33 0 l 33 885 l 324 885 q 550 821 470 885 q 630 631 630 758 q 610 531 630 576 q 556 456 590 487 q 475 406 522 425 q 372 383 428 387 l 640 0 m 534 632 q 478 764 534 722 q 324 806 422 806 l 126 806 l 126 458 l 324 458 q 478 499 422 458 q 534 632 534 540 "},"o":{"x_min":-14,"x_max":648,"ha":758,"o":"m 648 313 q 624 179 648 239 q 557 75 601 119 q 452 8 513 32 q 316 -16 391 -16 q 181 8 242 -16 q 76 75 120 32 q 9 179 32 119 q -14 313 -14 239 q 9 447 -14 385 q 76 553 32 509 q 181 622 120 597 q 316 647 242 647 q 452 622 391 647 q 557 553 513 597 q 624 447 601 509 q 648 313 648 385 m 555 313 q 539 413 555 367 q 491 494 523 459 q 416 548 460 528 q 316 568 371 568 q 216 548 260 568 q 141 494 171 528 q 94 413 110 459 q 79 313 79 367 q 94 213 79 259 q 141 134 110 167 q 216 82 171 101 q 316 63 260 63 q 416 82 371 63 q 491 134 460 101 q 539 213 523 167 q 555 313 555 259 "},"5":{"x_min":2.46875,"x_max":636,"ha":758,"o":"m 636 296 q 611 174 636 231 q 544 75 587 117 q 442 8 502 32 q 312 -16 382 -16 q 194 2 248 -16 q 99 56 140 21 q 32 143 58 92 q 2 261 7 195 l 92 275 q 114 190 96 229 q 160 122 132 150 q 227 78 188 94 q 312 63 266 63 q 409 81 366 63 q 481 131 451 99 q 527 206 511 163 q 543 296 543 248 q 527 390 543 347 q 481 464 511 433 q 410 513 452 495 q 316 532 368 532 q 212 509 262 532 q 126 443 162 486 l 33 443 l 33 885 l 587 885 l 587 806 l 126 806 l 125 528 q 218 589 166 568 q 324 611 270 611 q 450 588 393 611 q 548 526 507 566 q 612 427 589 486 q 636 296 636 369 "},"Ѕ":{"x_min":16.328125,"x_max":609,"ha":759,"o":"m 609 230 q 585 129 609 174 q 524 51 562 84 q 435 1 485 19 q 330 -16 385 -16 q 194 11 256 -16 q 95 93 131 39 l 95 0 l 16 0 l 16 268 l 95 268 q 116 185 95 223 q 169 120 137 147 q 244 78 202 93 q 331 63 286 63 q 403 74 370 63 q 461 106 436 85 q 501 156 487 126 q 516 224 516 186 q 497 297 516 267 q 447 350 478 328 q 376 387 415 371 q 296 417 337 402 q 200 452 248 434 q 114 500 151 471 q 52 569 76 528 q 29 671 29 610 q 52 768 29 726 q 112 840 75 811 q 199 884 149 869 q 300 900 248 900 q 419 873 365 900 q 505 792 474 847 l 505 885 l 588 885 l 588 632 l 505 632 q 488 707 505 672 q 443 766 471 742 q 378 806 414 791 q 300 821 341 821 q 232 812 265 821 q 175 786 199 804 q 136 740 151 768 q 122 672 122 711 q 139 613 122 637 q 185 570 156 588 q 253 536 214 551 q 331 505 291 520 q 430 465 381 487 q 519 413 480 444 q 583 338 558 383 q 609 230 609 294 "},"õ":{"x_min":-14,"x_max":648,"ha":758,"o":"m 648 313 q 624 179 648 239 q 557 75 601 119 q 452 8 513 32 q 316 -16 391 -16 q 181 8 242 -16 q 76 75 120 32 q 9 179 32 119 q -14 313 -14 239 q 9 447 -14 385 q 76 553 32 509 q 181 622 120 597 q 316 647 242 647 q 452 622 391 647 q 557 553 513 597 q 624 447 601 509 q 648 313 648 385 m 555 313 q 539 413 555 367 q 491 494 523 459 q 416 548 460 528 q 316 568 371 568 q 216 548 260 568 q 141 494 171 528 q 94 413 110 459 q 79 313 79 367 q 94 213 79 259 q 141 134 110 167 q 216 82 171 101 q 316 63 260 63 q 416 82 371 63 q 491 134 460 101 q 539 213 523 167 q 555 313 555 259 m 573 832 q 406 726 512 726 q 343 738 368 726 q 300 765 319 750 q 263 792 282 780 q 219 805 245 805 q 107 729 149 805 l 52 761 q 219 867 115 867 q 282 854 258 867 q 325 827 307 842 q 362 800 344 812 q 406 788 380 788 q 519 864 476 788 l 573 832 "},",":{"x_min":162.78125,"x_max":413.71875,"ha":758,"o":"m 413 126 l 227 -253 l 162 -253 l 288 126 l 413 126 "},"d":{"x_min":-1,"x_max":599,"ha":758,"o":"m 599 0 l 505 0 l 505 58 q 417 3 465 22 q 319 -16 369 -16 q 184 8 244 -16 q 84 76 124 32 q 21 181 43 120 q -1 315 -1 242 q 21 448 -1 387 q 84 553 43 509 q 184 622 124 597 q 319 647 244 647 q 417 629 369 647 q 505 575 465 611 l 505 806 l 378 806 l 378 885 l 599 885 l 599 0 m 505 484 q 417 548 465 528 q 318 568 370 568 q 220 548 262 568 q 149 494 177 528 q 106 415 121 461 q 92 315 92 369 q 106 215 92 261 q 149 136 121 169 q 220 82 177 102 q 318 63 262 63 q 505 147 425 63 l 505 484 "},"\"":{"x_min":126.15625,"x_max":505.28125,"ha":758,"o":"m 505 885 l 478 570 l 408 570 l 379 885 l 505 885 m 252 885 l 223 570 l 155 570 l 126 885 l 252 885 "},"ê":{"x_min":-2.71875,"x_max":638.890625,"ha":758,"o":"m 92 284 q 166 123 103 183 q 330 63 229 63 q 457 92 401 63 q 540 164 512 121 l 605 119 q 492 18 558 53 q 330 -16 426 -16 q 196 8 257 -16 q 90 76 134 32 q 21 180 46 120 q -2 315 -2 241 q 19 447 -2 387 q 83 553 41 508 q 184 622 124 597 q 318 647 244 647 q 459 619 398 647 q 559 545 519 592 q 619 430 600 497 q 638 284 638 364 l 92 284 m 540 363 q 465 517 524 466 q 318 568 405 568 q 235 553 273 568 q 168 511 197 538 q 119 446 139 484 q 94 363 99 408 l 540 363 m 518 732 l 482 687 l 318 826 l 151 685 l 115 729 l 316 927 l 518 732 "},"ч":{"x_min":33,"x_max":599,"ha":758,"o":"m 33 632 l 126 632 l 126 430 q 162 299 126 345 q 281 253 199 253 q 374 276 333 253 q 445 339 416 299 q 489 430 474 379 q 505 537 505 482 l 505 632 l 599 632 l 599 0 l 505 0 l 505 347 q 266 174 438 174 q 33 430 33 174 l 33 632 "},"Â":{"x_min":-40.015625,"x_max":674.828125,"ha":758,"o":"m 674 0 l 575 0 l 491 253 l 141 253 l 59 0 l -40 0 l 254 885 l 380 885 l 674 0 m 465 335 l 316 791 l 168 335 l 465 335 m 518 985 l 482 940 l 318 1079 l 151 938 l 115 982 l 316 1180 l 518 985 "},"Í":{"x_min":125.90625,"x_max":505.4375,"ha":758,"o":"m 505 0 l 125 0 l 125 79 l 269 79 l 269 806 l 125 806 l 125 885 l 505 885 l 505 806 l 363 806 l 363 79 l 505 79 l 505 0 m 482 1102 l 189 938 l 164 982 l 437 1177 l 482 1102 "},"´":{"x_min":164.125,"x_max":482.21875,"ha":758,"o":"m 482 850 l 189 686 l 164 730 l 437 925 l 482 850 "},"Ú":{"x_min":33,"x_max":599,"ha":758,"o":"m 599 315 q 582 178 599 239 q 530 74 565 117 q 442 7 495 31 q 315 -16 388 -16 q 188 7 241 -16 q 100 74 134 31 q 49 179 66 117 q 33 316 33 241 l 33 885 l 126 885 l 126 314 q 133 229 126 274 q 160 148 140 185 q 218 87 181 111 q 315 63 255 63 q 412 87 374 63 q 470 148 450 111 q 498 229 491 185 q 505 314 505 274 l 505 885 l 599 885 l 599 315 m 482 1102 l 189 938 l 164 982 l 437 1177 l 482 1102 "},"Ý":{"x_min":-13.8125,"x_max":645.828125,"ha":758,"o":"m 645 806 l 573 806 l 363 381 l 363 79 l 505 79 l 505 0 l 125 0 l 125 79 l 269 79 l 269 381 l 58 806 l -13 806 l -13 885 l 235 885 l 235 806 l 162 806 l 316 472 l 469 806 l 396 806 l 396 885 l 645 885 l 645 806 m 482 1102 l 189 938 l 164 982 l 437 1177 l 482 1102 "},"И":{"x_min":33,"x_max":599,"ha":758,"o":"m 33 885 l 126 885 l 126 170 l 468 885 l 599 885 l 599 0 l 505 0 l 505 748 l 148 0 l 33 0 l 33 885 "},"Љ":{"x_min":-94.5,"x_max":627,"ha":759,"o":"m 533 249 q 496 380 533 335 q 397 426 459 426 l 346 426 l 346 78 l 397 78 q 496 121 459 78 q 533 249 533 164 m 346 885 l 346 505 l 396 505 q 566 441 505 505 q 627 250 627 377 q 566 61 627 123 q 394 0 505 0 l 253 0 l 253 806 l 126 806 l 126 140 q 115 73 126 102 q 84 24 104 44 q 39 -5 64 5 q -15 -16 13 -16 q -61 -12 -42 -16 q -94 -3 -79 -9 l -78 74 q -58 65 -69 68 q -30 63 -47 63 q 33 139 33 63 l 33 885 l 346 885 "},"р":{"x_min":33,"x_max":632,"ha":758,"o":"m 632 315 q 608 180 632 241 q 544 76 585 120 q 443 8 502 32 q 311 -16 384 -16 q 213 2 260 -16 q 126 56 166 20 l 126 -253 l 33 -253 l 33 632 l 126 632 l 125 573 q 311 647 212 647 q 443 622 384 647 q 544 554 502 598 q 608 448 585 509 q 632 315 632 387 m 539 314 q 524 414 539 367 q 480 494 509 460 q 409 548 451 528 q 311 568 366 568 q 212 548 258 568 q 126 484 166 528 l 126 145 q 212 82 166 101 q 311 63 258 63 q 409 82 366 63 q 480 136 451 102 q 524 216 509 170 q 539 314 539 261 "},"т":{"x_min":0,"x_max":632,"ha":758,"o":"m 632 333 l 553 333 l 553 553 l 363 553 l 363 79 l 505 79 l 505 0 l 125 0 l 125 79 l 269 79 l 269 553 l 79 553 l 79 333 l 0 333 l 0 632 l 632 632 l 632 333 "},"П":{"x_min":33,"x_max":599,"ha":758,"o":"m 599 0 l 505 0 l 505 806 l 126 806 l 126 0 l 33 0 l 33 885 l 599 885 l 599 0 "},"Ö":{"x_min":-22,"x_max":656,"ha":758,"o":"m 656 441 q 637 269 656 352 q 579 123 619 186 q 474 22 539 60 q 317 -16 409 -16 q 159 22 224 -16 q 54 123 94 60 q -4 269 13 186 q -22 441 -22 352 q -4 612 -22 530 q 54 759 13 695 q 160 861 95 823 q 317 900 225 900 q 473 861 408 900 q 578 759 538 823 q 637 612 618 695 q 656 441 656 530 m 562 441 q 545 599 562 528 q 497 719 528 669 q 420 794 466 768 q 316 821 375 821 q 197 787 244 821 q 121 698 150 753 q 82 575 93 643 q 71 441 71 508 q 82 307 71 374 q 121 185 93 239 q 197 97 150 131 q 316 63 244 63 q 436 97 388 63 q 511 185 483 131 q 551 307 540 239 q 562 441 562 374 m 505 1010 l 379 1010 l 379 1137 l 505 1137 l 505 1010 m 252 1010 l 126 1010 l 126 1137 l 252 1137 l 252 1010 "},"z":{"x_min":32,"x_max":601,"ha":758,"o":"m 601 0 l 32 0 l 32 79 l 462 553 l 112 553 l 112 379 l 33 379 l 33 632 l 585 632 l 585 552 l 155 79 l 522 79 l 522 252 l 601 252 l 601 0 "},"ã":{"x_min":0,"x_max":600,"ha":758,"o":"m 0 170 q 29 270 0 230 q 108 334 59 311 q 219 368 156 357 q 346 379 281 379 q 391 378 371 379 q 429 376 411 377 q 466 372 447 374 q 506 368 484 370 l 506 413 q 485 489 506 459 q 436 536 465 519 q 375 560 407 553 q 321 568 343 568 q 191 549 250 568 q 80 498 131 530 l 38 568 q 165 624 94 602 q 321 647 236 647 q 422 633 373 647 q 512 593 472 620 q 576 520 552 565 q 600 413 600 476 l 600 0 l 506 0 l 506 105 q 451 51 482 74 q 386 14 420 28 q 318 -8 352 0 q 254 -16 284 -16 q 64 32 128 -16 q 0 170 0 80 m 254 63 q 358 80 312 63 q 437 123 405 97 q 488 178 470 149 q 506 232 506 208 l 506 292 q 419 299 460 298 q 346 300 377 300 q 250 293 296 300 q 169 271 204 286 q 113 231 134 255 q 93 170 93 206 q 131 96 93 130 q 254 63 170 63 m 573 832 q 406 726 512 726 q 343 738 368 726 q 300 765 319 750 q 263 792 282 780 q 219 805 245 805 q 107 729 149 805 l 52 761 q 219 867 115 867 q 282 854 258 867 q 325 827 307 842 q 362 800 344 812 q 406 788 380 788 q 519 864 476 788 l 573 832 "},"æ":{"x_min":-25,"x_max":646.28125,"ha":758,"o":"m 303 114 q 280 68 294 91 q 245 26 265 45 q 198 -4 224 7 q 138 -16 171 -16 q 17 37 59 -16 q -25 172 -25 91 q -5 266 -25 226 q 44 330 13 305 q 116 367 76 355 q 200 379 157 379 q 231 378 215 379 q 263 375 248 377 l 263 440 q 239 530 263 491 q 167 570 215 570 q 107 545 139 570 q 52 481 75 521 l -6 538 q 35 587 11 567 q 82 621 58 608 q 128 640 106 634 q 167 647 150 647 q 258 623 220 647 q 311 547 296 600 q 375 623 330 600 q 467 647 420 647 q 565 608 529 647 q 619 515 602 570 q 641 396 636 459 q 646 283 646 333 l 356 283 q 382 120 356 170 q 461 70 408 70 q 518 89 493 70 q 554 153 542 109 l 634 128 q 567 19 610 55 q 456 -16 525 -16 q 361 18 404 -16 q 303 114 318 52 m 546 365 q 524 523 546 476 q 455 570 503 570 q 383 524 410 570 q 356 365 356 479 l 546 365 m 263 297 q 239 299 254 298 q 209 300 224 300 q 109 267 151 300 q 68 165 68 234 q 88 99 68 128 q 148 70 108 70 q 191 80 170 70 q 227 109 211 91 q 253 151 243 127 q 263 204 263 176 l 263 297 "},"É":{"x_min":33,"x_max":598.71875,"ha":758,"o":"m 598 0 l 33 0 l 33 885 l 598 885 l 598 806 l 126 806 l 126 489 l 474 489 l 474 410 l 126 410 l 126 79 l 598 79 l 598 0 m 482 1102 l 189 938 l 164 982 l 437 1177 l 482 1102 "},"и":{"x_min":33,"x_max":599,"ha":758,"o":"m 33 632 l 126 632 l 126 122 l 468 632 l 599 632 l 599 0 l 505 0 l 505 533 l 148 0 l 33 0 l 33 632 "},"~":{"x_min":-2.71875,"x_max":634.8125,"ha":758,"o":"m 441 252 q 483 268 466 252 q 512 312 501 284 q 530 379 523 340 q 543 462 537 418 l 634 453 q 616 339 630 392 q 577 249 601 287 q 519 189 554 211 q 441 166 484 166 q 371 182 400 166 q 323 222 343 198 q 289 273 304 246 q 261 323 275 300 q 230 363 247 347 q 190 379 213 379 q 148 363 165 379 q 119 319 130 347 q 101 253 108 291 q 88 170 94 215 l -2 181 q 15 293 1 240 q 54 384 30 345 q 111 444 78 422 q 190 466 145 466 q 260 450 231 466 q 308 411 288 434 q 343 360 328 387 q 372 308 358 332 q 401 268 385 284 q 441 252 417 252 "},"³":{"x_min":-1.453125,"x_max":295,"ha":758,"o":"m 295 616 q 255 533 295 569 q 153 497 216 497 q -1 634 15 497 l 70 644 q 153 561 80 561 q 201 577 181 561 q 221 616 221 594 q 199 661 221 654 q 142 668 187 668 l 142 736 q 214 780 214 736 q 154 831 214 831 q 78 747 78 831 l 7 747 q 50 857 7 819 q 154 892 93 892 q 252 860 216 892 q 288 780 288 829 q 243 705 288 729 q 295 616 295 669 "},"¡":{"x_min":379,"x_max":505,"ha":758,"o":"m 380 0 l 414 636 l 470 636 l 505 0 l 380 0 m 379 885 l 505 885 l 505 758 l 379 758 l 379 885 "},"[":{"x_min":253,"x_max":505,"ha":758,"o":"m 505 -253 l 253 -253 l 253 1011 l 505 1011 l 505 936 l 328 936 l 328 -176 l 505 -176 l 505 -253 "},"К":{"x_min":33,"x_max":627.875,"ha":758,"o":"m 627 0 l 513 0 l 219 433 l 126 328 l 126 0 l 33 0 l 33 885 l 126 885 l 126 454 l 505 885 l 627 885 l 280 498 l 627 0 "},"%":{"x_min":-14,"x_max":652,"ha":758,"o":"m 326 727 q 312 662 326 693 q 276 607 299 630 q 221 570 252 584 q 154 557 190 557 q 89 570 120 557 q 34 607 57 584 q -1 662 11 630 q -14 727 -14 693 q -1 794 -14 762 q 34 849 11 826 q 89 886 57 872 q 154 900 120 900 q 221 886 190 900 q 276 849 252 872 q 312 794 299 826 q 326 727 326 762 m 632 862 l 65 -18 l 1 22 l 569 905 l 632 862 m 652 155 q 638 88 652 119 q 601 34 624 58 q 545 -2 577 10 q 479 -16 513 -16 q 412 -2 443 -16 q 358 33 381 10 q 321 87 335 56 q 308 155 308 119 q 321 221 308 190 q 358 275 335 253 q 412 311 381 298 q 479 325 443 325 q 545 311 513 325 q 600 275 576 298 q 638 221 624 253 q 652 155 652 190 m 257 728 q 227 801 257 771 q 155 831 198 831 q 83 801 112 831 q 54 728 54 771 q 83 655 54 685 q 155 626 112 626 q 227 655 198 626 q 257 728 257 685 m 582 155 q 552 227 582 198 q 479 257 522 257 q 406 227 435 257 q 377 155 377 198 q 406 82 377 112 q 479 53 435 53 q 552 82 522 53 q 582 155 582 112 "},"P":{"x_min":33,"x_max":630,"ha":758,"o":"m 630 632 q 550 441 630 503 q 325 379 470 379 l 126 379 l 126 0 l 33 0 l 33 885 l 324 885 q 550 821 470 885 q 630 632 630 758 m 537 632 q 479 764 537 723 q 325 806 421 806 l 126 806 l 126 458 l 325 458 q 479 499 421 458 q 537 632 537 540 "},"∏":{"x_min":-0.15625,"x_max":631.828125,"ha":758,"o":"m 631 806 l 505 806 l 505 0 l 412 0 l 412 806 l 220 806 l 220 0 l 126 0 l 126 806 l 0 806 l 0 885 l 631 885 l 631 806 "},"_":{"x_min":0,"x_max":632.109375,"ha":758,"o":"m 632 -126 l 0 -126 l 0 -47 l 632 -47 l 632 -126 "},"ñ":{"x_min":33,"x_max":599,"ha":758,"o":"m 599 0 l 505 0 l 505 389 q 468 521 505 474 q 349 568 431 568 q 256 544 298 568 q 185 480 214 520 q 141 390 156 441 q 126 283 126 338 l 126 0 l 33 0 l 33 632 l 126 632 l 125 473 q 365 647 193 647 q 599 389 599 647 l 599 0 m 573 832 q 406 726 512 726 q 343 738 368 726 q 300 765 319 750 q 263 792 282 780 q 219 805 245 805 q 107 729 149 805 l 52 761 q 219 867 115 867 q 282 854 258 867 q 325 827 307 842 q 362 800 344 812 q 406 788 380 788 q 519 864 476 788 l 573 832 "},"Æ":{"x_min":-42.65625,"x_max":631.90625,"ha":758,"o":"m 631 0 l 289 0 l 289 253 l 130 253 l 55 0 l -42 0 l 225 885 l 631 885 l 631 803 l 383 803 l 383 493 l 570 493 l 570 411 l 383 411 l 383 83 l 631 83 l 631 0 m 289 335 l 289 781 l 155 335 l 289 335 "},"ѓ":{"x_min":33,"x_max":631.953125,"ha":758,"o":"m 33 632 l 631 632 l 631 553 l 126 553 l 126 0 l 33 0 l 33 632 m 482 850 l 189 686 l 164 730 l 437 925 l 482 850 "},"ы":{"x_min":0,"x_max":632,"ha":758,"o":"m 539 632 l 632 632 l 632 0 l 539 0 l 539 632 m 93 379 l 201 379 q 360 333 305 379 q 415 190 415 288 q 360 45 415 91 q 202 0 305 0 l 0 0 l 0 632 l 93 632 l 93 379 m 322 190 q 290 271 322 242 q 202 300 259 300 l 93 300 l 93 79 l 202 79 q 290 108 259 79 q 322 190 322 137 "},"ª":{"x_min":-5,"x_max":474,"ha":758,"o":"m -5 515 q 18 595 -5 562 q 81 650 41 629 q 169 679 120 670 q 271 689 219 689 q 304 689 292 689 q 327 687 317 689 q 348 685 338 686 q 378 681 359 683 l 378 731 q 364 773 378 756 q 332 800 351 790 q 291 813 314 809 q 251 818 269 818 q 148 806 193 818 q 59 763 103 794 l 22 837 q 118 881 63 865 q 251 897 173 897 q 332 887 293 897 q 403 858 372 878 q 454 807 435 838 q 474 731 474 776 l 474 379 l 378 379 l 378 454 q 185 367 299 367 q 110 376 144 367 q 49 405 75 385 q 9 452 24 425 q -5 515 -5 479 m 186 446 q 267 457 231 446 q 327 484 303 468 q 364 518 351 499 q 378 551 378 536 l 378 605 q 319 611 342 610 q 271 612 296 612 q 141 589 192 612 q 91 515 91 566 q 115 465 91 485 q 186 446 139 446 m 474 174 l 0 174 l 0 253 l 474 253 l 474 174 "},"ї":{"x_min":126,"x_max":505,"ha":758,"o":"m 504 0 l 126 0 l 126 79 l 268 79 l 268 550 l 126 550 l 126 632 l 362 632 l 362 79 l 504 79 l 504 0 m 505 758 l 379 758 l 379 885 l 505 885 l 505 758 m 252 758 l 126 758 l 126 885 l 252 885 l 252 758 "},"T":{"x_min":0,"x_max":632,"ha":758,"o":"m 632 586 l 553 586 l 553 806 l 363 806 l 363 79 l 505 79 l 505 0 l 125 0 l 125 79 l 269 79 l 269 806 l 79 806 l 79 586 l 0 586 l 0 885 l 632 885 l 632 586 "},"Њ":{"x_min":33,"x_max":627,"ha":759,"o":"m 533 249 q 496 380 533 335 q 397 426 459 426 l 346 426 l 346 79 l 397 79 q 496 122 459 79 q 533 249 533 165 m 33 0 l 33 885 l 126 885 l 126 505 l 253 505 l 253 885 l 346 885 l 346 505 l 396 505 q 566 441 505 505 q 627 250 627 377 q 566 61 627 123 q 394 0 505 0 l 253 0 l 253 426 l 126 426 l 126 0 l 33 0 "},"є":{"x_min":0,"x_max":608.359375,"ha":758,"o":"m 94 284 q 166 125 104 187 q 333 63 229 63 q 459 90 404 63 q 543 163 514 117 l 608 118 q 498 20 568 56 q 333 -16 429 -16 q 198 8 259 -16 q 92 76 136 32 q 24 180 48 120 q 0 315 0 241 q 24 449 0 388 q 92 555 48 511 q 198 622 136 598 q 333 647 259 647 q 498 610 429 647 q 608 511 568 573 l 543 466 q 459 540 514 512 q 333 568 404 568 q 171 510 233 568 q 95 363 109 452 l 446 363 l 446 284 l 94 284 "},"Þ":{"x_min":33,"x_max":630,"ha":758,"o":"m 630 450 q 291 197 630 197 l 126 197 l 126 0 l 33 0 l 33 885 l 126 885 l 126 703 l 291 703 q 630 450 630 703 m 536 451 q 291 624 536 624 l 126 624 l 126 276 l 291 276 q 474 320 413 276 q 536 451 536 365 "},"✓":{"x_min":5.421875,"x_max":752.828125,"ha":758,"o":"m 752 451 l 229 -33 l 5 312 l 69 352 l 244 82 l 702 507 l 752 451 "},"j":{"x_min":2.640625,"x_max":505,"ha":758,"o":"m 505 758 l 379 758 l 379 885 l 505 885 l 505 758 m 235 -268 q 2 -130 69 -268 l 73 -81 q 137 -161 98 -133 q 235 -189 177 -189 q 313 -175 282 -189 q 362 -138 344 -162 q 388 -79 380 -113 q 396 0 396 -44 l 396 553 l 252 553 l 252 632 l 489 632 l 489 0 q 424 -195 489 -122 q 235 -268 360 -268 "},"1":{"x_min":-0.25,"x_max":505.4375,"ha":758,"o":"m 505 0 l 125 0 l 125 79 l 269 79 l 269 683 q 230 624 256 655 q 167 566 203 592 q 88 522 132 540 q 0 505 45 505 l 0 601 q 88 627 41 601 q 176 693 136 653 q 242 783 216 733 q 269 885 269 834 l 363 885 l 363 79 l 505 79 l 505 0 "},"ћ":{"x_min":-76.875,"x_max":599,"ha":758,"o":"m -76 758 l 33 758 l 33 885 l 126 885 l 126 758 l 252 758 l 252 679 l 126 679 l 125 473 q 365 647 193 647 q 599 389 599 647 l 599 0 l 505 0 l 505 389 q 468 521 505 474 q 349 568 431 568 q 256 544 298 568 q 185 480 214 520 q 141 390 156 441 q 126 283 126 338 l 126 0 l 33 0 l 33 679 l -76 679 l -76 758 "},"<":{"x_min":134.96875,"x_max":534.4375,"ha":758,"o":"m 534 30 l 482 -23 l 134 324 l 482 671 l 534 616 l 241 324 l 534 30 "},"Ц":{"x_min":33,"x_max":715,"ha":758,"o":"m 715 79 l 715 -216 l 632 -216 l 632 0 l 33 0 l 33 885 l 126 885 l 126 79 l 505 79 l 505 885 l 599 885 l 599 79 l 715 79 "},"t":{"x_min":-0.109375,"x_max":638.875,"ha":758,"o":"m 638 200 q 560 42 628 100 q 392 -16 493 -16 q 290 2 336 -16 q 211 53 244 20 q 160 131 178 85 q 143 231 143 177 l 143 553 l 0 553 l 0 632 l 143 632 l 143 885 l 236 885 l 236 632 l 505 632 l 505 553 l 236 553 l 236 231 q 247 166 236 196 q 278 112 258 135 q 326 76 298 89 q 392 63 355 63 q 507 106 461 63 q 560 217 554 149 l 638 200 "},"¬":{"x_min":-0.46875,"x_max":632,"ha":758,"o":"m 632 0 l 555 0 l 555 304 l 0 304 l 0 379 l 632 379 l 632 0 "},"ù":{"x_min":33,"x_max":599,"ha":758,"o":"m 33 632 l 126 632 l 126 240 q 162 109 126 156 q 281 63 199 63 q 374 86 333 63 q 445 150 416 110 q 489 241 474 189 q 505 348 505 292 l 505 632 l 599 632 l 599 0 l 505 0 l 505 157 q 266 -16 438 -16 q 33 241 33 -16 l 33 632 m 474 731 l 446 687 l 155 851 l 200 926 l 474 731 "},"Ф":{"x_min":-14,"x_max":648,"ha":758,"o":"m 648 444 q 627 320 648 377 q 569 220 606 263 q 479 150 531 177 q 363 116 426 123 l 363 0 l 269 0 l 269 118 q 153 151 205 124 q 63 221 101 179 q 6 320 26 263 q -14 444 -14 377 q 6 568 -14 511 q 63 669 26 625 q 153 739 101 712 q 269 775 205 766 l 269 885 l 363 885 l 363 775 q 479 740 426 768 q 569 669 531 712 q 627 568 606 626 q 648 444 648 511 m 555 444 q 541 534 555 491 q 504 609 528 576 q 444 664 480 642 q 363 694 408 686 l 363 198 q 504 281 454 213 q 555 444 555 348 m 79 444 q 128 281 79 348 q 269 198 177 213 l 269 694 q 187 663 223 686 q 128 609 152 641 q 91 534 104 576 q 79 444 79 491 "},"ï":{"x_min":126,"x_max":505,"ha":758,"o":"m 504 0 l 126 0 l 126 79 l 268 79 l 268 550 l 126 550 l 126 632 l 362 632 l 362 79 l 504 79 l 504 0 m 505 758 l 379 758 l 379 885 l 505 885 l 505 758 m 252 758 l 126 758 l 126 885 l 252 885 l 252 758 "},"Ò":{"x_min":-22,"x_max":656,"ha":758,"o":"m 656 441 q 637 269 656 352 q 579 123 619 186 q 474 22 539 60 q 317 -16 409 -16 q 159 22 224 -16 q 54 123 94 60 q -4 269 13 186 q -22 441 -22 352 q -4 612 -22 530 q 54 759 13 695 q 160 861 95 823 q 317 900 225 900 q 473 861 408 900 q 578 759 538 823 q 637 612 618 695 q 656 441 656 530 m 562 441 q 545 599 562 528 q 497 719 528 669 q 420 794 466 768 q 316 821 375 821 q 197 787 244 821 q 121 698 150 753 q 82 575 93 643 q 71 441 71 508 q 82 307 71 374 q 121 185 93 239 q 197 97 150 131 q 316 63 244 63 q 436 97 388 63 q 511 185 483 131 q 551 307 540 239 q 562 441 562 374 m 474 983 l 446 939 l 155 1103 l 200 1178 l 474 983 "},"О":{"x_min":-22,"x_max":656,"ha":758,"o":"m 656 441 q 637 269 656 352 q 579 123 619 186 q 474 22 539 60 q 317 -16 409 -16 q 159 22 224 -16 q 54 123 94 60 q -4 269 13 186 q -22 441 -22 352 q -4 612 -22 530 q 54 759 13 695 q 160 861 95 823 q 317 900 225 900 q 473 861 408 900 q 578 759 538 823 q 637 612 618 695 q 656 441 656 530 m 562 441 q 545 599 562 528 q 497 719 528 669 q 420 794 466 768 q 316 821 375 821 q 197 787 244 821 q 121 698 150 753 q 82 575 93 643 q 71 441 71 508 q 82 307 71 374 q 121 185 93 239 q 197 97 150 131 q 316 63 244 63 q 436 97 388 63 q 511 185 483 131 q 551 307 540 239 q 562 441 562 374 "},"&":{"x_min":-17,"x_max":648.609375,"ha":758,"o":"m 648 383 q 609 266 636 325 q 542 154 582 207 l 648 54 l 584 -18 l 478 85 q 367 12 428 40 q 234 -16 306 -16 q 137 3 183 -16 q 57 54 91 22 q 3 130 23 87 q -17 226 -17 174 q -8 304 -17 268 q 16 368 1 340 q 54 419 32 397 q 101 462 76 442 q 36 567 59 515 q 13 672 13 619 q 73 838 13 776 q 235 900 134 900 q 322 886 282 900 q 392 846 362 872 q 439 784 422 820 q 456 700 456 747 q 434 609 456 647 q 382 544 413 572 q 309 492 350 515 q 230 444 269 469 l 474 215 q 528 309 507 259 q 559 405 548 358 l 648 383 m 234 74 q 332 94 287 74 q 414 147 378 114 l 181 375 l 161 394 q 104 324 125 364 q 83 226 83 284 q 125 117 83 161 q 234 74 167 74 m 109 672 q 120 600 109 640 q 171 509 132 559 q 240 549 206 529 q 301 590 275 568 q 343 639 327 612 q 360 703 360 667 q 324 786 360 755 q 235 817 289 817 q 183 805 206 817 q 142 773 159 793 q 117 726 125 753 q 109 672 109 700 "},"I":{"x_min":125.90625,"x_max":505.4375,"ha":758,"o":"m 505 0 l 125 0 l 125 79 l 269 79 l 269 806 l 125 806 l 125 885 l 505 885 l 505 806 l 363 806 l 363 79 l 505 79 l 505 0 "},"G":{"x_min":-14,"x_max":667,"ha":758,"o":"m 667 439 q 648 267 667 349 q 588 122 629 185 q 482 21 547 59 q 326 -16 417 -16 q 168 22 233 -16 q 63 123 104 60 q 3 269 21 186 q -14 441 -14 352 q 3 612 -14 530 q 63 759 21 695 q 168 861 104 823 q 326 900 233 900 q 466 870 408 900 q 553 781 525 841 l 553 885 l 632 885 l 632 595 l 553 595 q 535 685 553 643 q 486 756 517 726 q 414 803 455 786 q 326 821 372 821 q 207 787 254 821 q 131 698 159 753 q 90 575 102 643 q 79 441 79 508 q 90 307 79 374 q 131 185 102 239 q 206 97 159 131 q 326 63 254 63 q 495 145 433 63 q 568 379 557 228 l 372 379 l 372 458 l 667 458 l 667 439 "},"`":{"x_min":155.3125,"x_max":474.75,"ha":758,"o":"m 474 730 l 446 686 l 155 850 l 200 925 l 474 730 "},"·":{"x_min":252.984375,"x_max":379.125,"ha":758,"o":"m 379 261 l 252 261 l 252 387 l 379 387 l 379 261 "},"¿":{"x_min":142,"x_max":644.296875,"ha":758,"o":"m 379 885 l 505 885 l 505 758 l 379 758 l 379 885 m 142 191 q 161 283 142 243 q 209 356 180 323 q 274 419 239 389 q 338 480 308 448 q 386 547 367 511 q 406 632 406 584 l 504 632 q 483 537 504 579 q 434 459 463 495 q 370 391 405 423 q 305 327 335 359 q 256 263 276 296 q 236 191 236 230 q 272 97 236 131 q 379 63 309 63 q 508 113 465 63 q 560 242 551 164 l 644 229 q 565 49 632 115 q 380 -16 499 -16 q 204 41 267 -16 q 142 191 142 99 "},"ý":{"x_min":-21.03125,"x_max":651.765625,"ha":758,"o":"m 651 632 l 309 -160 q 235 -247 283 -226 q 128 -268 187 -268 q -1 -244 63 -268 l 16 -163 q 79 -183 48 -177 q 128 -189 109 -189 q 192 -166 174 -189 q 222 -113 209 -144 l 261 -18 l -21 632 l 88 632 l 316 79 l 540 632 l 651 632 m 482 850 l 189 686 l 164 730 l 437 925 l 482 850 "},"Ђ":{"x_min":-93.15625,"x_max":599,"ha":758,"o":"m -93 885 l 252 885 l 252 806 l 126 806 l 125 473 q 365 647 193 647 q 599 389 599 647 l 599 140 q 586 73 599 102 q 552 24 573 44 q 503 -5 531 5 q 445 -16 476 -16 q 362 1 388 -16 l 380 74 q 401 65 389 68 q 433 63 413 63 q 505 139 505 63 l 505 389 q 468 521 505 474 q 349 568 431 568 q 256 544 298 568 q 185 480 214 520 q 141 390 156 441 q 126 283 126 338 l 126 0 l 33 0 l 33 806 l -93 806 l -93 885 "},"º":{"x_min":-12,"x_max":519,"ha":758,"o":"m 519 632 q 498 524 519 573 q 442 440 477 474 q 357 386 406 405 q 252 367 308 367 q 147 385 195 367 q 63 438 99 404 q 7 522 27 473 q -12 632 -12 571 q 7 741 -12 692 q 63 826 27 790 q 147 880 99 861 q 252 899 195 899 q 357 880 308 899 q 442 826 406 861 q 498 741 477 790 q 519 632 519 692 m 426 632 q 412 709 426 674 q 374 768 398 743 q 319 806 350 793 q 252 820 288 820 q 185 806 216 820 q 130 768 154 793 q 94 709 107 743 q 81 632 81 674 q 129 496 81 547 q 252 446 177 446 q 321 459 290 446 q 375 496 352 472 q 412 555 399 521 q 426 632 426 590 m 505 174 l 0 174 l 0 253 l 505 253 l 505 174 "},"∞":{"x_min":-5,"x_max":644.734375,"ha":758,"o":"m 644 315 q 632 250 644 280 q 599 197 621 219 q 548 161 578 174 q 484 149 518 149 q 395 171 435 149 q 319 255 355 194 q 246 172 283 195 q 155 149 208 149 q 93 161 122 149 q 42 197 64 174 q 7 250 20 219 q -5 315 -5 280 q 7 380 -5 349 q 41 433 20 411 q 91 468 62 455 q 155 481 121 481 q 246 457 208 481 q 319 372 283 433 q 395 457 355 433 q 484 481 435 481 q 546 468 517 481 q 597 433 575 455 q 632 380 619 411 q 644 315 644 349 m 583 315 q 554 392 583 363 q 484 421 524 421 q 348 315 398 421 q 484 207 398 207 q 553 238 524 207 q 583 315 581 270 m 290 315 q 154 421 243 421 q 85 391 114 421 q 56 315 56 361 q 83 238 56 270 q 154 207 111 207 q 290 315 241 207 "},"я":{"x_min":-9,"x_max":599,"ha":758,"o":"m 234 253 q 61 303 121 258 q 1 441 1 348 q 68 586 1 540 q 262 632 136 632 l 599 632 l 599 0 l 505 0 l 505 253 l 353 253 l 122 0 l -9 0 l 234 253 m 94 441 q 139 360 94 388 q 263 332 184 332 l 505 332 l 505 553 l 263 553 q 139 523 184 553 q 94 441 94 494 "},"Ё":{"x_min":33,"x_max":598.71875,"ha":758,"o":"m 598 0 l 33 0 l 33 885 l 598 885 l 598 806 l 126 806 l 126 489 l 474 489 l 474 410 l 126 410 l 126 79 l 598 79 l 598 0 m 505 1011 l 379 1011 l 379 1138 l 505 1138 l 505 1011 m 252 1011 l 126 1011 l 126 1138 l 252 1138 l 252 1011 "},";":{"x_min":162.78125,"x_max":413.71875,"ha":758,"o":"m 379 505 l 253 505 l 253 632 l 379 632 l 379 505 m 413 126 l 227 -253 l 162 -253 l 288 126 l 413 126 "},"Г":{"x_min":33,"x_max":631.953125,"ha":758,"o":"m 33 885 l 631 885 l 631 806 l 126 806 l 126 0 l 33 0 l 33 885 "},"6":{"x_min":-5,"x_max":650,"ha":758,"o":"m 650 301 q 625 169 650 227 q 558 69 601 110 q 456 6 515 28 q 329 -16 397 -16 q 171 22 235 -16 q 68 123 107 60 q 12 269 29 186 q -5 441 -5 352 q 18 614 -5 531 q 88 761 41 697 q 205 862 135 825 q 369 900 275 900 q 589 808 501 900 l 527 754 q 369 821 466 821 q 244 793 298 821 q 153 718 189 766 q 98 601 116 669 q 81 451 81 533 q 116 516 90 486 q 177 569 143 547 q 252 604 212 591 q 333 618 293 618 q 461 594 403 618 q 561 529 519 571 q 626 429 603 487 q 650 301 650 370 m 557 300 q 541 394 557 350 q 498 470 526 438 q 427 520 469 502 q 333 539 386 539 q 239 522 282 539 q 165 474 196 505 q 118 402 135 443 q 102 309 102 360 q 115 214 102 259 q 157 136 129 170 q 228 82 186 102 q 329 63 270 63 q 421 79 379 63 q 493 126 462 96 q 540 202 523 157 q 557 300 557 247 "},"Ь":{"x_min":33,"x_max":630,"ha":758,"o":"m 537 249 q 479 380 537 335 q 325 426 421 426 l 126 426 l 126 79 l 325 79 q 479 122 421 79 q 537 249 537 165 m 126 505 l 325 505 q 550 441 470 505 q 630 250 630 377 q 550 61 630 123 q 324 0 470 0 l 33 0 l 33 885 l 126 885 l 126 505 "},"n":{"x_min":33,"x_max":599,"ha":758,"o":"m 599 0 l 505 0 l 505 389 q 468 521 505 474 q 349 568 431 568 q 256 544 298 568 q 185 480 214 520 q 141 390 156 441 q 126 283 126 338 l 126 0 l 33 0 l 33 632 l 126 632 l 125 473 q 365 647 193 647 q 599 389 599 647 l 599 0 "},"¤":{"x_min":-26.890625,"x_max":659.171875,"ha":758,"o":"m 659 732 l 579 653 q 631 556 613 611 q 649 440 649 502 q 631 324 649 377 q 581 229 613 270 l 659 150 l 604 98 l 526 175 q 432 126 485 143 q 316 110 378 110 q 198 127 252 110 q 103 177 145 145 l 26 98 l -26 150 l 51 230 q 2 324 19 271 q -14 440 -14 377 q 52 651 -14 565 l -26 732 l 26 785 l 105 704 q 316 774 191 774 q 432 755 378 774 q 525 705 485 737 l 604 785 l 659 732 m 555 440 q 539 540 555 494 q 491 621 523 586 q 416 675 460 656 q 316 695 371 695 q 216 675 260 695 q 141 621 171 656 q 94 540 110 586 q 79 440 79 494 q 94 340 79 386 q 141 261 110 294 q 216 209 171 228 q 316 191 260 191 q 416 209 371 191 q 491 261 460 228 q 539 340 523 294 q 555 440 555 386 "},"∂":{"x_min":-14,"x_max":644,"ha":758,"o":"m -14 239 q 25 366 -14 311 q 133 462 64 420 q 294 532 202 503 q 492 577 386 560 q 350 721 439 662 q 148 820 260 780 l 178 900 q 355 817 270 864 q 503 706 439 771 q 606 558 568 642 q 644 363 644 474 q 619 206 644 276 q 549 86 595 135 q 438 10 503 36 q 291 -16 373 -16 q 69 49 152 -16 q -14 239 -14 114 m 551 363 q 545 434 551 400 q 528 500 540 468 q 347 465 430 489 q 205 408 264 442 q 112 333 145 375 q 79 239 79 290 q 135 111 79 160 q 291 63 192 63 q 401 84 353 63 q 483 145 449 106 q 533 240 516 185 q 551 363 551 296 "},"p":{"x_min":33,"x_max":632,"ha":758,"o":"m 632 315 q 608 180 632 241 q 544 76 585 120 q 443 8 502 32 q 311 -16 384 -16 q 213 2 260 -16 q 126 56 166 20 l 126 -253 l 33 -253 l 33 632 l 126 632 l 125 573 q 311 647 212 647 q 443 622 384 647 q 544 554 502 598 q 608 448 585 509 q 632 315 632 387 m 539 314 q 524 414 539 367 q 480 494 509 460 q 409 548 451 528 q 311 568 366 568 q 212 548 258 568 q 126 484 166 528 l 126 145 q 212 82 166 101 q 311 63 258 63 q 409 82 366 63 q 480 136 451 102 q 524 216 509 170 q 539 314 539 261 "},"√":{"x_min":15.59375,"x_max":632.109375,"ha":758,"o":"m 632 683 l 438 683 l 234 0 l 164 0 l 15 491 l 87 513 l 200 111 l 383 758 l 632 758 l 632 683 "},"Ю":{"x_min":33,"x_max":635,"ha":758,"o":"m 33 885 l 126 885 l 126 482 l 243 482 q 439 900 251 900 q 635 441 635 900 q 439 -16 635 -16 q 243 403 251 -16 l 126 403 l 126 0 l 33 0 l 33 885 m 439 63 q 491 90 470 63 q 522 168 511 118 q 537 288 533 219 q 542 441 542 357 q 537 595 542 524 q 522 715 533 665 q 491 793 511 765 q 439 821 470 821 q 387 793 407 821 q 356 715 367 765 q 341 595 345 665 q 337 441 337 524 q 341 288 337 357 q 356 168 345 219 q 387 90 367 118 q 439 63 407 63 "},"S":{"x_min":16.328125,"x_max":609,"ha":759,"o":"m 609 230 q 585 129 609 175 q 524 51 562 84 q 435 1 485 19 q 330 -16 385 -16 q 194 11 256 -16 q 95 93 131 39 l 95 0 l 16 0 l 16 268 l 95 268 q 116 185 95 223 q 169 120 137 147 q 244 78 202 93 q 331 63 286 63 q 403 74 370 63 q 461 106 436 85 q 501 156 487 126 q 516 224 516 186 q 497 298 516 267 q 447 350 478 328 q 376 387 415 372 q 296 418 337 403 q 200 453 248 434 q 114 500 151 472 q 52 570 76 529 q 29 672 29 611 q 52 768 29 726 q 112 840 75 811 q 199 884 149 869 q 300 900 248 900 q 419 873 365 900 q 505 792 474 847 l 505 885 l 588 885 l 588 632 l 505 632 q 488 707 505 672 q 443 766 471 742 q 378 806 414 791 q 300 821 341 821 q 232 812 265 821 q 175 786 199 804 q 136 740 151 768 q 122 672 122 711 q 139 613 122 638 q 185 570 156 589 q 253 536 214 552 q 331 506 291 521 q 430 466 381 488 q 519 414 480 444 q 583 339 558 383 q 609 230 609 294 "},"/":{"x_min":27.8125,"x_max":613.796875,"ha":758,"o":"m 613 883 l 94 -163 l 27 -127 l 547 918 l 613 883 "},"ђ":{"x_min":-76.875,"x_max":599,"ha":758,"o":"m -76 758 l 33 758 l 33 885 l 126 885 l 126 758 l 252 758 l 252 679 l 126 679 l 125 473 q 365 647 193 647 q 599 389 599 647 l 599 -112 q 586 -179 599 -149 q 552 -227 573 -208 q 503 -257 531 -247 q 445 -268 476 -268 q 362 -251 388 -268 l 380 -177 q 401 -185 389 -182 q 433 -189 413 -189 q 505 -112 505 -189 l 505 389 q 468 521 505 474 q 349 568 431 568 q 256 544 298 568 q 185 480 214 520 q 141 390 156 441 q 126 283 126 338 l 126 0 l 33 0 l 33 679 l -76 679 l -76 758 "},"y":{"x_min":-21.03125,"x_max":651.765625,"ha":758,"o":"m 651 632 l 309 -160 q 235 -247 283 -226 q 128 -268 187 -268 q -1 -244 63 -268 l 16 -163 q 79 -183 48 -177 q 128 -189 109 -189 q 192 -166 174 -189 q 222 -113 209 -144 l 261 -18 l -21 632 l 88 632 l 316 79 l 540 632 l 651 632 "},"≈":{"x_min":-13.5625,"x_max":645.671875,"ha":758,"o":"m 645 487 q 434 352 568 352 q 354 367 384 352 q 301 401 324 382 q 255 435 278 419 q 197 450 231 450 q 54 357 109 450 l -13 397 q 197 531 63 531 q 278 515 247 531 q 331 480 308 499 q 378 445 355 461 q 434 430 401 430 q 577 528 522 430 l 645 487 m 645 233 q 434 97 568 97 q 354 112 384 97 q 301 146 324 128 q 255 180 278 165 q 197 196 231 196 q 54 103 109 196 l -13 143 q 197 276 63 276 q 278 260 247 276 q 331 226 308 244 q 378 191 355 207 q 434 176 401 176 q 577 274 522 176 l 645 233 "},"g":{"x_min":-1,"x_max":599,"ha":758,"o":"m 599 7 q 576 -109 599 -58 q 513 -195 554 -160 q 419 -249 473 -230 q 297 -268 364 -268 q 137 -232 203 -268 q 22 -131 71 -197 l 88 -81 q 171 -155 117 -125 q 297 -185 226 -185 q 449 -136 393 -185 q 505 4 505 -87 l 505 71 q 316 -1 422 -1 q 83 83 168 -1 q -1 315 -1 168 q 21 448 -1 387 q 84 553 43 508 q 183 622 124 597 q 316 647 242 647 q 416 628 368 647 q 505 574 465 610 l 505 632 l 599 632 l 599 7 m 505 484 q 417 548 465 528 q 316 568 369 568 q 218 548 261 568 q 148 494 176 528 q 106 414 121 460 q 92 315 92 368 q 148 142 92 206 q 316 78 204 78 q 417 97 369 78 q 505 162 465 117 l 505 484 "},"²":{"x_min":18.71875,"x_max":305,"ha":758,"o":"m 305 780 q 282 712 305 743 q 231 657 271 693 q 190 620 214 641 q 136 567 167 598 l 236 567 l 236 616 l 303 616 l 303 506 l 28 506 l 28 558 l 199 720 q 231 780 231 752 q 212 816 231 804 q 165 829 193 829 q 87 735 87 829 l 18 735 q 165 893 18 893 q 260 865 222 893 q 305 780 305 832 "},"ë":{"x_min":-2.71875,"x_max":638.890625,"ha":758,"o":"m 92 284 q 166 123 103 183 q 330 63 229 63 q 457 92 401 63 q 540 164 512 121 l 605 119 q 492 18 558 53 q 330 -16 426 -16 q 196 8 257 -16 q 90 76 134 32 q 21 180 46 120 q -2 315 -2 241 q 19 447 -2 387 q 83 553 41 508 q 184 622 124 597 q 318 647 244 647 q 459 619 398 647 q 559 545 519 592 q 619 430 600 497 q 638 284 638 364 l 92 284 m 540 363 q 465 517 524 466 q 318 568 405 568 q 235 553 273 568 q 168 511 197 538 q 119 446 139 484 q 94 363 99 408 l 540 363 m 505 758 l 379 758 l 379 885 l 505 885 l 505 758 m 252 758 l 126 758 l 126 885 l 252 885 l 252 758 "},"б":{"x_min":0,"x_max":632,"ha":758,"o":"m 101 300 q 159 127 101 192 q 320 63 217 63 q 408 79 367 63 q 477 127 448 96 q 523 203 507 159 q 539 300 539 247 q 481 474 539 409 q 320 539 424 539 q 154 474 207 539 q 101 300 101 409 m 0 441 q 21 627 0 543 q 81 771 42 711 q 174 866 120 832 q 292 900 227 900 q 344 893 323 900 q 381 879 365 887 q 413 865 398 871 q 449 859 428 859 q 496 868 477 859 q 544 900 516 877 l 592 844 q 523 798 563 817 q 449 780 484 780 q 403 786 423 780 q 367 800 384 792 q 333 814 350 808 q 292 821 316 821 q 214 798 251 821 q 151 732 178 775 q 109 628 124 689 q 94 490 94 566 q 135 544 110 520 q 189 585 159 568 q 253 609 219 601 q 320 618 287 618 q 444 597 387 618 q 542 538 501 577 q 608 439 584 498 q 632 301 632 380 q 608 176 632 234 q 542 75 584 117 q 444 8 501 32 q 320 -16 387 -16 q 80 95 161 -16 q 0 441 0 206 "},"у":{"x_min":-21.03125,"x_max":651.765625,"ha":758,"o":"m 651 632 l 309 -160 q 235 -247 283 -226 q 128 -268 187 -268 q -1 -244 63 -268 l 16 -163 q 79 -183 48 -177 q 128 -189 109 -189 q 192 -166 174 -189 q 222 -113 209 -144 l 261 -18 l -21 632 l 88 632 l 316 79 l 540 632 l 651 632 "},"J":{"x_min":-1.640625,"x_max":599,"ha":758,"o":"m 599 337 q 527 76 599 169 q 308 -16 455 -16 q 110 45 190 -16 q -1 231 30 107 l 79 261 q 165 107 108 151 q 308 63 223 63 q 409 88 370 63 q 469 152 448 113 q 497 239 490 191 q 505 337 505 288 l 505 885 l 599 885 l 599 337 "},"Ã":{"x_min":-40.015625,"x_max":674.828125,"ha":758,"o":"m 674 0 l 575 0 l 491 253 l 141 253 l 59 0 l -40 0 l 254 885 l 380 885 l 674 0 m 465 335 l 316 791 l 168 335 l 465 335 m 573 1085 q 406 979 512 979 q 343 991 368 979 q 300 1018 319 1003 q 263 1045 282 1033 q 219 1058 245 1058 q 107 982 149 1058 l 52 1014 q 219 1120 115 1120 q 282 1107 258 1120 q 325 1080 307 1095 q 362 1053 344 1065 q 406 1041 380 1041 q 519 1117 476 1041 l 573 1085 "},"Ј":{"x_min":-1.640625,"x_max":599,"ha":758,"o":"m 599 337 q 527 76 599 169 q 308 -16 455 -16 q 110 45 190 -16 q -1 231 30 107 l 79 261 q 165 107 108 151 q 308 63 223 63 q 409 88 370 63 q 469 152 448 113 q 497 239 490 191 q 505 337 505 288 l 505 885 l 599 885 l 599 337 "},"©":{"x_min":1,"x_max":761,"ha":758,"o":"m 587 359 q 383 260 522 260 q 284 277 329 260 q 206 328 239 295 q 155 406 173 361 q 138 505 138 452 q 155 601 138 557 q 204 679 172 646 q 281 732 236 713 q 383 752 326 752 q 587 652 522 752 l 515 603 q 383 671 478 671 q 274 623 314 671 q 235 505 235 576 q 273 389 235 437 q 383 341 311 341 q 515 408 478 341 l 587 359 m 761 503 q 732 360 761 429 q 653 239 704 291 q 533 156 602 187 q 381 125 463 125 q 239 152 308 125 q 117 229 170 179 q 32 348 64 279 q 1 503 1 417 q 30 651 1 581 q 112 773 60 720 q 233 855 163 825 q 381 885 302 885 q 527 855 458 885 q 648 775 596 826 q 730 654 699 725 q 761 503 761 584 m 717 503 q 690 633 717 572 q 618 740 664 694 q 512 812 573 785 q 381 840 451 840 q 251 813 312 840 q 144 742 190 787 q 72 636 98 697 q 46 503 46 575 q 72 372 46 433 q 143 266 98 311 q 250 195 189 221 q 381 170 311 170 q 511 195 450 170 q 618 266 572 221 q 690 372 664 311 q 717 503 717 433 "},"≥":{"x_min":126.15625,"x_max":632.109375,"ha":758,"o":"m 623 323 l 276 -22 l 223 30 l 516 323 l 223 618 l 276 671 l 623 323 m 632 -126 l 126 -126 l 126 -49 l 632 -49 l 632 -126 "},"ґ":{"x_min":33,"x_max":632,"ha":758,"o":"m 553 758 l 632 758 l 632 553 l 126 553 l 126 0 l 33 0 l 33 632 l 553 632 l 553 758 "},"D":{"x_min":33,"x_max":661,"ha":758,"o":"m 661 441 q 642 272 661 352 q 582 131 623 191 q 476 35 541 70 q 320 0 412 0 l 33 0 l 33 885 l 320 885 q 475 848 410 885 q 581 751 540 812 q 641 610 622 690 q 661 441 661 530 m 568 441 q 502 710 568 615 q 320 806 437 806 l 126 806 l 126 79 l 320 79 q 502 173 437 79 q 568 441 568 267 "},"ÿ":{"x_min":-21.03125,"x_max":651.765625,"ha":758,"o":"m 651 632 l 309 -160 q 235 -247 283 -226 q 128 -268 187 -268 q -1 -244 63 -268 l 16 -163 q 79 -183 48 -177 q 128 -189 109 -189 q 192 -166 174 -189 q 222 -113 209 -144 l 261 -18 l -21 632 l 88 632 l 316 79 l 540 632 l 651 632 m 505 758 l 379 758 l 379 885 l 505 885 l 505 758 m 252 758 l 126 758 l 126 885 l 252 885 l 252 758 "},"ц":{"x_min":33,"x_max":715,"ha":758,"o":"m 715 82 l 715 -216 l 632 -216 l 632 0 l 33 0 l 33 632 l 126 632 l 126 79 l 505 79 l 505 632 l 599 632 l 599 82 l 715 82 "},"Л":{"x_min":-17.109375,"x_max":599,"ha":758,"o":"m 599 885 l 599 0 l 505 0 l 505 806 l 220 806 l 220 140 q 207 73 220 102 q 173 24 194 44 q 124 -5 152 5 q 66 -16 96 -16 q -17 1 9 -16 l 1 74 q 22 65 10 68 q 54 63 34 63 q 126 139 126 63 l 126 885 l 599 885 "},"$":{"x_min":-0.25,"x_max":610,"ha":759,"o":"m 269 -10 q 165 17 212 -3 q 85 70 119 38 q 29 144 51 103 q 0 231 7 185 l 87 254 q 146 135 102 185 q 269 70 190 84 l 269 427 q 167 470 212 448 q 92 521 123 493 q 44 586 60 549 q 29 673 29 623 q 45 754 29 716 q 92 823 62 792 q 167 873 123 854 q 269 899 212 893 l 269 1011 l 363 1011 l 363 899 q 457 869 413 893 q 531 813 500 846 q 581 740 562 780 q 605 658 600 699 l 508 641 q 463 750 499 701 q 363 813 428 800 l 363 494 q 548 389 486 448 q 610 230 610 330 q 593 143 610 184 q 544 70 576 103 q 467 16 512 38 q 363 -10 421 -5 l 363 -126 l 269 -126 l 269 -10 m 509 222 q 471 321 509 280 q 363 394 434 362 l 363 70 q 474 124 441 82 q 509 222 507 166 m 125 674 q 163 587 125 622 q 269 526 202 552 l 269 815 q 204 795 231 809 q 159 761 176 780 q 133 719 141 741 q 125 674 125 697 "},"w":{"x_min":-18.3125,"x_max":653.125,"ha":758,"o":"m 653 632 l 524 0 l 416 0 l 315 463 l 219 0 l 111 0 l -18 632 l 80 632 l 172 126 l 270 632 l 362 632 l 463 126 l 555 632 l 653 632 "},"∫":{"x_min":2.46875,"x_max":632.265625,"ha":758,"o":"m 632 1067 q 591 1071 612 1070 q 542 1072 569 1072 q 408 1030 454 1072 q 363 892 363 989 l 363 -10 q 92 -268 363 -268 q 48 -266 71 -268 q 2 -263 26 -265 l 2 -184 q 42 -187 22 -186 q 92 -189 62 -189 q 223 -147 178 -189 q 269 -10 269 -106 l 269 892 q 542 1151 269 1151 q 585 1148 562 1151 q 632 1144 608 1146 l 632 1067 "},"\\":{"x_min":90.203125,"x_max":676.1875,"ha":758,"o":"m 676 -127 l 609 -163 l 90 883 l 156 918 l 676 -127 "},"о":{"x_min":-14,"x_max":648,"ha":758,"o":"m 648 313 q 624 179 648 239 q 557 75 601 119 q 452 8 513 32 q 316 -16 391 -16 q 181 8 242 -16 q 76 75 120 32 q 9 179 32 119 q -14 313 -14 239 q 9 447 -14 385 q 76 553 32 509 q 181 622 120 597 q 316 647 242 647 q 452 622 391 647 q 557 553 513 597 q 624 447 601 509 q 648 313 648 385 m 555 313 q 539 413 555 367 q 491 494 523 459 q 416 548 460 528 q 316 568 371 568 q 216 548 260 568 q 141 494 171 528 q 94 413 110 459 q 79 313 79 367 q 94 213 79 259 q 141 134 110 167 q 216 82 171 101 q 316 63 260 63 q 416 82 371 63 q 491 134 460 101 q 539 213 523 167 q 555 313 555 259 "},"Д":{"x_min":0,"x_max":632,"ha":758,"o":"m 0 79 q 68 151 38 112 q 118 253 98 189 q 149 415 138 316 q 160 666 160 514 l 160 885 l 505 885 l 505 79 l 632 79 l 632 -216 l 549 -216 l 549 0 l 83 0 l 83 -216 l 0 -216 l 0 79 m 253 666 q 245 455 253 547 q 220 293 237 364 q 177 169 204 222 q 111 79 149 117 l 412 79 l 412 806 l 253 806 l 253 666 "},"Ì":{"x_min":125.90625,"x_max":505.4375,"ha":758,"o":"m 505 0 l 125 0 l 125 79 l 269 79 l 269 806 l 125 806 l 125 885 l 505 885 l 505 806 l 363 806 l 363 79 l 505 79 l 505 0 m 474 983 l 446 939 l 155 1103 l 200 1178 l 474 983 "},"Ç":{"x_min":-14,"x_max":638.40625,"ha":758,"o":"m 638 231 q 542 66 607 130 q 380 -11 476 2 l 380 -27 q 323 -187 380 -127 q 164 -252 263 -252 l 164 -173 q 301 -28 301 -173 l 301 -14 q 154 30 214 -8 q 56 132 93 70 q 2 275 19 195 q -14 441 -14 355 q 3 612 -14 530 q 63 759 21 695 q 168 861 104 823 q 326 900 233 900 q 466 870 408 900 q 553 781 525 841 l 553 885 l 632 885 l 632 595 l 553 595 q 535 683 553 641 q 486 755 517 725 q 414 803 455 786 q 326 821 372 821 q 207 787 254 821 q 131 698 159 753 q 90 575 102 643 q 79 441 79 508 q 90 307 79 374 q 131 185 102 239 q 207 97 160 131 q 326 63 254 63 q 557 263 492 63 l 638 231 "},"ъ":{"x_min":-0.0625,"x_max":630,"ha":758,"o":"m 0 632 l 253 632 l 253 379 l 402 379 q 571 333 512 379 q 630 190 630 288 q 571 45 630 91 q 403 0 512 0 l 160 0 l 160 553 l 0 553 l 0 632 m 537 190 q 501 271 537 242 q 403 300 466 300 l 253 300 l 253 79 l 403 79 q 501 108 466 79 q 537 190 537 137 "},"C":{"x_min":-14,"x_max":637,"ha":758,"o":"m 637 231 q 523 50 602 117 q 325 -16 445 -16 q 168 22 232 -16 q 62 123 104 60 q 3 269 21 186 q -14 441 -14 352 q 3 612 -14 530 q 63 759 21 695 q 168 861 104 823 q 326 900 233 900 q 466 870 408 900 q 553 781 525 841 l 553 885 l 632 885 l 632 595 l 553 595 q 535 683 553 641 q 486 755 517 725 q 414 803 455 786 q 326 821 372 821 q 207 787 254 821 q 131 698 159 753 q 90 575 102 643 q 79 441 79 508 q 90 307 79 374 q 131 185 102 239 q 206 97 159 131 q 326 63 254 63 q 557 263 491 63 l 637 231 "},"!":{"x_min":252.984375,"x_max":379.125,"ha":758,"o":"m 377 885 l 343 248 l 287 248 l 252 885 l 377 885 m 379 0 l 252 0 l 252 126 l 379 126 l 379 0 "},"ç":{"x_min":0,"x_max":609.234375,"ha":758,"o":"m 609 119 q 515 30 573 64 q 380 -12 458 -3 l 380 -27 q 323 -187 380 -127 q 164 -252 263 -252 l 164 -173 q 301 -28 301 -173 l 301 -14 q 177 16 233 -8 q 82 85 122 42 q 21 186 42 128 q 0 315 0 245 q 22 448 0 387 q 86 553 44 509 q 187 622 127 597 q 321 647 247 647 q 380 640 350 647 q 438 619 411 633 q 487 586 465 605 q 520 540 509 566 l 520 632 l 603 632 l 603 378 l 520 378 q 504 455 520 420 q 462 515 489 490 q 399 554 436 540 q 321 568 363 568 q 221 548 264 568 q 150 494 179 528 q 107 414 122 460 q 93 314 93 369 q 109 214 93 260 q 157 135 126 168 q 234 82 189 102 q 334 63 278 63 q 460 90 405 63 q 544 164 514 118 l 609 119 "},"È":{"x_min":33,"x_max":598.71875,"ha":758,"o":"m 598 0 l 33 0 l 33 885 l 598 885 l 598 806 l 126 806 l 126 489 l 474 489 l 474 410 l 126 410 l 126 79 l 598 79 l 598 0 m 474 983 l 446 939 l 155 1103 l 200 1178 l 474 983 "},"Й":{"x_min":33,"x_max":599,"ha":758,"o":"m 33 885 l 126 885 l 126 170 l 468 885 l 599 885 l 599 0 l 505 0 l 505 748 l 148 0 l 33 0 l 33 885 m 510 1072 q 316 994 430 994 q 123 1072 202 994 l 176 1124 q 316 1060 240 1060 q 457 1124 393 1060 l 510 1072 "},"X":{"x_min":-15.59375,"x_max":647.03125,"ha":758,"o":"m 647 0 l 396 0 l 396 79 l 455 79 l 316 369 l 176 79 l 236 79 l 236 0 l -15 0 l -15 79 l 70 79 l 262 445 l 73 806 l 0 806 l 0 885 l 252 885 l 252 806 l 179 806 l 316 522 l 450 806 l 379 806 l 379 885 l 632 885 l 632 806 l 555 806 l 370 445 l 560 79 l 647 79 l 647 0 "},"ô":{"x_min":-14,"x_max":648,"ha":758,"o":"m 648 313 q 624 179 648 239 q 557 75 601 119 q 452 8 513 32 q 316 -16 391 -16 q 181 8 242 -16 q 76 75 120 32 q 9 179 32 119 q -14 313 -14 239 q 9 447 -14 385 q 76 553 32 509 q 181 622 120 597 q 316 647 242 647 q 452 622 391 647 q 557 553 513 597 q 624 447 601 509 q 648 313 648 385 m 555 313 q 539 413 555 367 q 491 494 523 459 q 416 548 460 528 q 316 568 371 568 q 216 548 260 568 q 141 494 171 528 q 94 413 110 459 q 79 313 79 367 q 94 213 79 259 q 141 134 110 167 q 216 82 171 101 q 316 63 260 63 q 416 82 371 63 q 491 134 460 101 q 539 213 523 167 q 555 313 555 259 m 518 732 l 482 687 l 318 826 l 151 685 l 115 729 l 316 927 l 518 732 "},"Б":{"x_min":33,"x_max":630,"ha":758,"o":"m 537 249 q 479 380 537 335 q 325 426 421 426 l 126 426 l 126 79 l 325 79 q 479 122 421 79 q 537 249 537 165 m 126 505 l 325 505 q 550 441 470 505 q 630 250 630 377 q 550 61 630 123 q 324 0 470 0 l 33 0 l 33 885 l 598 885 l 598 806 l 126 806 l 126 505 "},"г":{"x_min":33,"x_max":631.953125,"ha":758,"o":"m 33 632 l 631 632 l 631 553 l 126 553 l 126 0 l 33 0 l 33 632 "},"х":{"x_min":-13.5625,"x_max":647.03125,"ha":758,"o":"m 647 0 l 385 0 l 385 82 l 441 82 l 316 265 l 193 82 l 244 82 l 244 0 l -13 0 l -13 82 l 84 82 l 258 320 l 91 549 l 0 549 l 0 632 l 259 632 l 259 549 l 201 549 l 316 376 l 433 549 l 369 549 l 369 632 l 632 632 l 632 549 l 543 549 l 376 320 l 550 82 l 647 82 l 647 0 "},"}":{"x_min":126,"x_max":503.796875,"ha":758,"o":"m 503 341 q 379 226 379 341 l 379 -62 q 365 -138 379 -104 q 325 -199 351 -173 q 265 -239 299 -225 q 189 -253 230 -253 l 126 -253 l 126 -176 l 188 -176 q 302 -62 302 -176 l 302 226 q 311 275 302 250 q 336 322 320 301 q 373 359 352 344 q 420 377 395 373 q 373 398 395 383 q 335 435 350 413 q 311 482 320 457 q 302 530 302 507 l 302 822 q 188 936 302 936 l 126 936 l 126 1011 l 189 1011 q 265 996 230 1011 q 325 956 299 981 q 365 897 351 931 q 379 821 379 862 l 379 529 q 503 416 379 416 l 503 341 "},"â":{"x_min":0,"x_max":600,"ha":758,"o":"m 0 170 q 29 270 0 230 q 108 334 59 311 q 219 368 156 357 q 346 379 281 379 q 391 378 371 379 q 429 376 411 377 q 466 372 447 374 q 506 368 484 370 l 506 413 q 485 489 506 459 q 436 536 465 519 q 375 560 407 553 q 321 568 343 568 q 191 549 250 568 q 80 498 131 530 l 38 568 q 165 624 94 602 q 321 647 236 647 q 422 633 373 647 q 512 593 472 620 q 576 520 552 565 q 600 413 600 476 l 600 0 l 506 0 l 506 105 q 451 51 482 74 q 386 14 420 28 q 318 -8 352 0 q 254 -16 284 -16 q 64 32 128 -16 q 0 170 0 80 m 254 63 q 358 80 312 63 q 437 123 405 97 q 488 178 470 149 q 506 232 506 208 l 506 292 q 419 299 460 298 q 346 300 377 300 q 250 293 296 300 q 169 271 204 286 q 113 231 134 255 q 93 170 93 206 q 131 96 93 130 q 254 63 170 63 m 518 732 l 482 687 l 318 826 l 151 685 l 115 729 l 316 927 l 518 732 "},"ø":{"x_min":-29.59375,"x_max":662.25,"ha":758,"o":"m -29 80 l 33 130 q -14 313 -14 209 q 9 447 -14 385 q 76 553 32 509 q 181 622 120 597 q 316 647 242 647 q 453 621 392 647 q 559 549 514 596 l 662 632 l 662 551 l 598 499 q 648 313 648 417 q 624 179 648 239 q 557 75 601 119 q 452 8 513 32 q 316 -16 391 -16 q 178 9 240 -16 q 72 80 116 34 l -29 0 l -29 80 m 555 313 q 525 442 555 385 l 141 135 q 216 82 173 102 q 316 63 259 63 q 416 81 371 63 q 491 134 460 100 q 539 213 523 167 q 555 313 555 259 m 79 313 q 105 188 79 241 l 491 495 q 415 548 459 528 q 316 568 371 568 q 216 548 260 568 q 141 494 171 528 q 94 413 110 459 q 79 313 79 367 "},"Ä":{"x_min":-40.015625,"x_max":674.828125,"ha":758,"o":"m 674 0 l 575 0 l 491 253 l 141 253 l 59 0 l -40 0 l 254 885 l 380 885 l 674 0 m 465 335 l 316 791 l 168 335 l 465 335 m 505 1010 l 379 1010 l 379 1137 l 505 1137 l 505 1010 m 252 1010 l 126 1010 l 126 1137 l 252 1137 l 252 1010 "},"Ч":{"x_min":33,"x_max":599,"ha":758,"o":"m 33 885 l 126 885 l 126 494 q 162 363 126 409 q 281 317 199 317 q 374 340 333 317 q 445 403 416 364 q 489 494 474 443 q 505 601 505 546 l 505 885 l 599 885 l 599 0 l 505 0 l 505 410 q 266 238 438 238 q 33 494 33 238 l 33 885 "},"N":{"x_min":33,"x_max":599,"ha":758,"o":"m 599 0 l 483 0 l 126 748 l 126 0 l 33 0 l 33 885 l 163 885 l 505 170 l 505 885 l 599 885 l 599 0 "},"豈":{"x_min":1,"x_max":764.78125,"ha":758,"o":"m 764 248 q 687 95 740 169 q 556 4 620 4 q 477 22 526 4 q 397 39 427 39 q 320 22 369 39 q 247 3 270 3 q 83 144 163 3 q 1 421 1 287 q 53 611 1 533 q 219 704 114 704 q 316 687 258 704 q 364 675 345 678 q 391 672 382 672 q 473 689 414 672 q 565 708 531 708 q 739 617 665 708 q 640 440 640 534 q 673 324 640 379 q 764 248 707 266 m 681 222 q 578 440 578 302 q 611 570 578 509 q 617 578 614 573 q 625 589 620 583 l 650 616 q 565 644 628 644 q 490 630 554 644 l 392 608 l 299 627 q 219 640 229 640 q 99 566 141 640 q 65 421 65 505 q 137 176 65 300 q 247 67 199 67 q 294 79 260 67 q 397 103 356 103 q 500 82 439 103 q 556 68 538 68 q 644 147 591 68 q 681 222 654 164 m 558 891 q 520 777 558 833 q 433 701 484 717 q 410 696 425 698 q 376 692 396 695 q 555 914 377 873 q 557 903 556 907 q 558 891 558 898 "},"2":{"x_min":7,"x_max":601,"ha":758,"o":"m 598 655 q 591 589 598 619 q 568 530 585 560 q 525 467 552 501 q 457 391 498 434 l 148 79 l 522 79 l 522 252 l 601 252 l 601 0 l 26 0 l 26 82 l 370 432 q 421 485 397 458 q 464 538 445 511 q 494 595 483 565 q 505 656 505 624 q 451 779 505 737 q 317 821 397 821 q 149 759 206 821 q 93 580 93 697 l 7 580 q 86 815 7 730 q 317 900 166 900 q 425 883 374 900 q 514 835 475 866 q 575 759 553 804 q 598 655 598 714 "},"ü":{"x_min":33,"x_max":599,"ha":758,"o":"m 33 632 l 126 632 l 126 240 q 162 109 126 156 q 281 63 199 63 q 374 86 333 63 q 445 150 416 110 q 489 241 474 189 q 505 348 505 292 l 505 632 l 599 632 l 599 0 l 505 0 l 505 157 q 266 -16 438 -16 q 33 241 33 -16 l 33 632 m 505 758 l 379 758 l 379 885 l 505 885 l 505 758 m 252 758 l 126 758 l 126 885 l 252 885 l 252 758 "},"М":{"x_min":33,"x_max":599,"ha":758,"o":"m 599 0 l 505 0 l 505 737 l 348 280 l 281 280 l 126 737 l 126 0 l 33 0 l 33 885 l 153 885 l 315 422 l 478 885 l 599 885 l 599 0 "},"ь":{"x_min":33,"x_max":630,"ha":758,"o":"m 126 379 l 367 379 q 561 333 493 379 q 630 190 630 288 q 562 45 630 91 q 369 0 495 0 l 33 0 l 33 632 l 126 632 l 126 379 m 537 190 q 491 271 537 242 q 367 300 446 300 l 126 300 l 126 79 l 367 79 q 491 108 446 79 q 537 190 537 137 "},"Ó":{"x_min":-22,"x_max":656,"ha":758,"o":"m 656 441 q 637 269 656 352 q 579 123 619 186 q 474 22 539 60 q 317 -16 409 -16 q 159 22 224 -16 q 54 123 94 60 q -4 269 13 186 q -22 441 -22 352 q -4 612 -22 530 q 54 759 13 695 q 160 861 95 823 q 317 900 225 900 q 473 861 408 900 q 578 759 538 823 q 637 612 618 695 q 656 441 656 530 m 562 441 q 545 599 562 528 q 497 719 528 669 q 420 794 466 768 q 316 821 375 821 q 197 787 244 821 q 121 698 150 753 q 82 575 93 643 q 71 441 71 508 q 82 307 71 374 q 121 185 93 239 q 197 97 150 131 q 316 63 244 63 q 436 97 388 63 q 511 185 483 131 q 551 307 540 239 q 562 441 562 374 m 482 1102 l 189 938 l 164 982 l 437 1177 l 482 1102 "},"Ў":{"x_min":-21.03125,"x_max":651.765625,"ha":758,"o":"m 651 885 l 309 92 q 235 5 283 26 q 128 -16 187 -16 q -1 7 63 -16 l 16 88 q 79 68 48 74 q 128 63 109 63 q 192 85 174 63 q 222 138 209 107 l 261 234 l -21 885 l 88 885 l 316 331 l 540 885 l 651 885 m 510 1073 q 316 995 430 995 q 123 1073 202 995 l 176 1125 q 316 1061 240 1061 q 457 1125 393 1061 l 510 1073 "},"€":{"x_min":0,"x_max":637.53125,"ha":758,"o":"m 0 582 l 112 582 q 142 706 122 648 q 195 806 162 763 q 274 874 227 849 q 381 900 320 900 q 539 840 476 900 q 637 653 602 780 l 555 632 q 491 768 536 715 q 384 821 446 821 q 270 761 316 821 q 205 582 223 701 l 379 582 l 379 505 l 197 505 q 196 474 196 490 q 196 441 196 458 q 196 409 196 425 q 197 379 196 394 l 379 379 l 379 302 l 205 302 q 269 122 222 181 q 384 63 316 63 q 491 116 446 63 q 555 253 536 170 l 637 231 q 539 43 602 103 q 381 -16 476 -16 q 274 9 320 -16 q 195 76 227 34 q 141 177 162 118 q 111 302 120 235 l 0 302 l 0 379 l 104 379 q 103 410 103 394 q 103 441 103 426 q 103 473 103 456 q 104 505 103 490 l 0 505 l 0 582 "},"в":{"x_min":33,"x_max":631,"ha":758,"o":"m 631 180 q 563 44 631 88 q 369 0 495 0 l 33 0 l 33 632 l 348 632 q 439 624 394 632 q 519 599 484 617 q 577 550 555 581 q 600 466 600 518 q 576 384 600 417 q 483 333 552 351 q 599 275 568 314 q 631 180 631 237 m 507 461 q 491 508 507 490 q 453 536 475 526 q 402 549 430 546 q 348 553 374 553 l 126 553 l 126 371 l 348 371 q 404 374 376 371 q 456 388 433 377 q 493 416 479 398 q 507 461 507 433 m 538 184 q 492 266 538 240 q 368 292 447 292 l 126 292 l 126 79 l 368 79 q 492 105 447 79 q 538 184 538 132 "},"С":{"x_min":-14,"x_max":637,"ha":758,"o":"m 637 231 q 523 51 602 117 q 325 -14 445 -14 q 168 23 232 -14 q 62 123 104 60 q 3 269 21 186 q -14 441 -14 352 q 3 612 -14 530 q 63 759 21 695 q 168 861 104 823 q 326 900 233 900 q 466 870 408 900 q 553 781 525 841 l 553 885 l 632 885 l 632 595 l 553 595 q 535 683 553 641 q 486 755 517 725 q 414 803 455 786 q 326 821 372 821 q 207 787 254 821 q 131 698 159 753 q 90 576 102 643 q 79 441 79 508 q 90 307 79 375 q 131 186 102 240 q 206 99 159 133 q 326 65 254 65 q 557 263 491 65 l 637 231 "},"ß":{"x_min":33,"x_max":632,"ha":758,"o":"m 632 181 q 614 103 632 140 q 564 41 596 67 q 488 0 531 15 q 393 -16 444 -16 q 277 2 326 -16 q 184 57 229 21 l 237 128 q 310 78 273 94 q 393 63 347 63 q 496 92 455 63 q 538 182 538 121 q 517 246 538 220 q 468 290 497 271 q 403 326 438 309 q 338 362 368 342 q 289 408 309 381 q 269 473 269 434 q 291 545 269 519 q 340 592 313 571 q 389 638 367 613 q 412 705 412 664 q 384 787 412 753 q 288 821 356 821 q 206 800 238 821 q 156 746 174 780 q 132 667 138 711 q 126 574 126 622 l 126 0 l 33 0 l 33 572 q 41 681 33 623 q 77 787 49 739 q 154 868 104 836 q 288 900 205 900 q 380 884 340 900 q 448 843 420 869 q 490 782 475 817 q 505 705 505 747 q 483 616 505 649 q 434 561 461 583 q 384 521 406 539 q 363 480 363 503 q 382 447 363 462 q 432 417 402 433 q 497 381 462 401 q 561 335 531 362 q 611 270 591 308 q 632 181 632 233 "},"њ":{"x_min":33,"x_max":640,"ha":758,"o":"m 33 0 l 33 632 l 126 632 l 126 379 l 253 379 l 253 632 l 346 632 l 346 379 l 426 379 q 585 333 530 379 q 640 190 640 288 q 585 45 640 91 q 427 0 530 0 l 253 0 l 253 300 l 126 300 l 126 0 l 33 0 m 547 190 q 515 271 547 242 q 427 300 484 300 l 346 300 l 346 79 l 427 79 q 515 108 484 79 q 547 190 547 137 "},"s":{"x_min":-7.015625,"x_max":615,"ha":758,"o":"m 615 174 q 587 82 615 118 q 515 23 559 45 q 417 -6 471 2 q 312 -16 363 -16 q 140 8 226 -16 q -7 74 55 33 l 34 154 q 172 86 104 110 q 312 63 239 63 q 522 172 522 63 q 504 215 522 198 q 458 242 487 232 q 391 259 429 253 q 312 271 353 265 q 207 288 259 278 q 112 319 155 298 q 43 373 69 339 q 17 462 17 407 q 41 544 17 510 q 105 602 65 579 q 200 636 145 625 q 312 647 254 647 q 461 627 396 647 q 580 572 527 608 l 543 499 q 433 552 489 537 q 312 568 377 568 q 248 562 283 568 q 181 545 212 557 q 130 512 151 532 q 110 462 110 492 q 127 419 110 435 q 173 393 144 403 q 240 376 202 382 q 319 365 278 370 q 423 347 370 357 q 519 317 476 337 q 588 263 562 297 q 615 174 615 230 "},"?":{"x_min":113.703125,"x_max":616,"ha":758,"o":"m 379 0 l 253 0 l 253 126 l 379 126 l 379 0 m 616 693 q 596 600 616 640 q 548 528 577 561 q 484 465 518 494 q 420 405 449 436 q 371 337 391 374 q 352 253 352 300 l 254 253 q 274 347 254 306 q 323 425 294 388 q 388 493 352 461 q 452 556 423 525 q 501 621 481 587 q 522 693 522 654 q 485 787 522 753 q 378 821 448 821 q 303 807 336 821 q 249 769 271 793 q 214 713 227 746 q 197 641 201 681 l 113 654 q 192 834 125 768 q 377 900 258 900 q 553 842 490 900 q 616 693 616 785 "},"c":{"x_min":0,"x_max":608,"ha":758,"o":"m 608 119 q 498 20 568 57 q 333 -16 429 -16 q 197 8 259 -16 q 92 76 136 32 q 24 180 48 120 q 0 315 0 241 q 22 448 0 387 q 86 553 44 509 q 187 622 127 597 q 321 647 247 647 q 380 640 350 647 q 438 619 411 633 q 487 586 465 605 q 520 540 509 566 l 520 632 l 603 632 l 603 378 l 520 378 q 504 455 520 420 q 462 515 489 490 q 399 554 436 540 q 321 568 363 568 q 221 548 264 568 q 150 494 179 528 q 107 414 122 460 q 93 314 93 369 q 109 214 93 260 q 157 135 126 168 q 233 82 189 102 q 333 63 278 63 q 458 90 404 63 q 542 164 513 118 l 608 119 "},"¶":{"x_min":21,"x_max":615,"ha":758,"o":"m 615 0 l 522 0 l 522 379 l 363 379 l 363 0 l 269 0 l 269 384 q 21 631 21 410 q 359 885 21 885 l 615 885 l 615 0 m 522 462 l 522 806 l 363 806 l 363 462 l 522 462 m 269 798 q 153 743 191 785 q 115 631 115 700 q 269 469 115 495 l 269 798 "},"н":{"x_min":33,"x_max":599,"ha":758,"o":"m 599 0 l 505 0 l 505 284 l 126 284 l 126 0 l 33 0 l 33 632 l 126 632 l 126 363 l 505 363 l 505 632 l 599 632 l 599 0 "},"(":{"x_min":128,"x_max":478.28125,"ha":758,"o":"m 429 -252 q 300 -122 356 -195 q 206 31 244 -50 q 148 203 168 113 q 128 384 128 292 q 148 564 128 475 q 206 735 168 654 q 300 889 244 817 q 429 1019 356 962 l 478 957 q 363 841 413 906 q 277 701 312 776 q 224 546 242 627 q 207 384 207 466 q 224 220 207 300 q 277 66 242 140 q 362 -73 312 -7 q 478 -190 412 -139 l 429 -252 "},"­":{"x_min":0,"x_max":632.109375,"ha":758,"o":"m 632 285 l 0 285 l 0 364 l 632 364 l 632 285 "},"м":{"x_min":33,"x_max":599,"ha":758,"o":"m 599 0 l 505 0 l 505 501 l 349 173 l 283 173 l 126 501 l 126 0 l 33 0 l 33 632 l 153 632 l 316 302 l 478 632 l 599 632 l 599 0 "},":":{"x_min":253,"x_max":379,"ha":758,"o":"m 379 505 l 253 505 l 253 632 l 379 632 l 379 505 m 379 0 l 253 0 l 253 126 l 379 126 l 379 0 "},"з":{"x_min":-1.453125,"x_max":607,"ha":758,"o":"m 599 458 q 566 372 599 412 q 468 320 534 331 q 568 268 530 308 q 607 178 607 227 q 582 97 607 133 q 515 35 558 60 q 415 -2 473 10 q 290 -16 358 -16 q 111 17 181 -16 q -1 118 41 50 l 63 163 q 151 88 95 114 q 290 63 206 63 q 451 93 389 63 q 514 178 514 124 q 502 215 514 196 q 467 249 490 234 q 410 272 443 263 q 330 282 376 282 l 224 282 l 224 361 l 330 361 q 461 392 418 361 q 505 458 505 423 q 449 538 505 508 q 298 568 394 568 q 165 539 218 568 q 85 463 113 511 l 16 511 q 126 612 58 578 q 298 647 194 647 q 418 633 363 647 q 513 596 473 620 q 576 536 554 572 q 599 458 599 501 "},"Ґ":{"x_min":33,"x_max":632,"ha":758,"o":"m 553 1011 l 632 1011 l 632 806 l 126 806 l 126 0 l 33 0 l 33 885 l 553 885 l 553 1011 "},"і":{"x_min":126,"x_max":504.4375,"ha":758,"o":"m 378 758 l 252 758 l 252 885 l 378 885 l 378 758 m 504 0 l 126 0 l 126 79 l 268 79 l 268 553 l 126 553 l 126 632 l 362 632 l 362 79 l 504 79 l 504 0 "},"Û":{"x_min":33,"x_max":599,"ha":758,"o":"m 599 315 q 582 178 599 239 q 530 74 565 117 q 442 7 495 31 q 315 -16 388 -16 q 188 7 241 -16 q 100 74 134 31 q 49 179 66 117 q 33 316 33 241 l 33 885 l 126 885 l 126 314 q 133 229 126 274 q 160 148 140 185 q 218 87 181 111 q 315 63 255 63 q 412 87 374 63 q 470 148 450 111 q 498 229 491 185 q 505 314 505 274 l 505 885 l 599 885 l 599 315 m 518 985 l 482 940 l 318 1079 l 151 938 l 115 982 l 316 1180 l 518 985 "},"V":{"x_min":-40.015625,"x_max":674.828125,"ha":758,"o":"m 674 885 l 379 0 l 252 0 l -40 885 l 58 885 l 316 94 l 573 885 l 674 885 "}," ":{"x_min":0,"x_max":0,"ha":758},"У":{"x_min":-21.03125,"x_max":651.765625,"ha":758,"o":"m 651 885 l 309 92 q 235 5 283 26 q 128 -16 187 -16 q -1 7 63 -16 l 16 88 q 79 68 48 74 q 128 63 109 63 q 192 85 174 63 q 222 138 209 107 l 261 234 l -21 885 l 88 885 l 316 331 l 540 885 l 651 885 "},"@":{"x_min":-22,"x_max":656,"ha":758,"o":"m 656 464 q 648 370 656 418 q 622 285 641 323 q 573 222 604 246 q 497 198 543 198 q 459 204 478 198 q 427 224 441 211 q 404 254 412 237 q 396 292 396 271 l 396 311 q 349 229 381 261 q 275 198 317 198 q 200 217 230 198 q 152 269 170 237 q 127 343 134 302 q 120 428 120 384 q 131 524 120 478 q 166 604 143 569 q 223 660 189 639 q 303 681 257 681 q 353 669 326 681 q 396 632 379 657 l 396 668 l 485 668 l 485 311 q 493 280 485 290 q 516 271 501 271 q 549 289 536 271 q 571 335 563 307 q 583 397 579 363 q 587 463 587 431 q 581 556 587 510 q 562 644 575 603 q 527 722 549 686 q 476 783 506 757 q 406 824 446 809 q 317 839 367 839 q 188 806 240 839 q 105 718 137 773 q 60 592 74 664 q 47 440 47 520 q 60 291 47 363 q 105 165 74 219 q 189 77 137 110 q 316 45 240 45 q 416 64 372 45 q 496 117 460 84 l 536 71 q 316 -16 449 -16 q 205 1 254 -16 q 118 49 156 18 q 54 123 80 81 q 10 217 27 166 q -14 325 -6 268 q -22 441 -22 382 q -13 559 -22 501 q 11 667 -5 616 q 54 760 28 718 q 119 834 81 803 q 206 882 157 865 q 317 900 255 900 q 473 862 408 900 q 578 763 538 824 q 637 623 619 701 q 656 464 656 545 m 396 548 q 359 594 380 581 q 311 608 337 608 q 267 592 286 608 q 236 551 248 577 q 218 494 224 526 q 213 428 213 462 q 232 317 213 354 q 286 280 251 280 q 332 295 311 280 q 366 335 352 310 q 388 391 381 360 q 396 452 396 421 l 396 548 "},"¾":{"x_min":-1.453125,"x_max":632.40625,"ha":758,"o":"m 295 616 q 255 533 295 569 q 153 497 216 497 q -1 634 15 497 l 70 644 q 153 561 80 561 q 201 577 181 561 q 221 616 221 594 q 199 661 221 654 q 142 668 187 668 l 142 736 q 214 780 214 736 q 154 831 214 831 q 78 747 78 831 l 7 747 q 50 857 7 819 q 154 892 93 892 q 252 860 216 892 q 288 780 288 829 q 243 705 288 729 q 295 616 295 669 m 632 862 l 65 -18 l 1 22 l 570 905 l 632 862 m 632 0 l 437 0 l 437 61 l 500 61 l 500 102 l 330 102 l 330 152 l 496 379 l 571 379 l 571 164 l 632 164 l 632 102 l 571 102 l 571 61 l 632 61 l 632 0 m 500 164 l 499 271 l 419 164 l 500 164 "},"i":{"x_min":126,"x_max":504.4375,"ha":758,"o":"m 378 758 l 252 758 l 252 885 l 378 885 l 378 758 m 504 0 l 126 0 l 126 79 l 268 79 l 268 553 l 126 553 l 126 632 l 362 632 l 362 79 l 504 79 l 504 0 "},"ќ":{"x_min":33,"x_max":630.59375,"ha":758,"o":"m 630 0 l 498 0 l 239 283 l 126 179 l 126 0 l 33 0 l 33 632 l 126 632 l 126 291 l 486 632 l 619 632 l 302 341 l 630 0 m 482 850 l 189 686 l 164 730 l 437 925 l 482 850 "},"≤":{"x_min":126.15625,"x_max":632.109375,"ha":758,"o":"m 534 30 l 482 -22 l 134 323 l 482 671 l 534 618 l 241 323 l 534 30 m 632 -126 l 126 -126 l 126 -49 l 632 -49 l 632 -126 "},"ё":{"x_min":-2.71875,"x_max":638.890625,"ha":758,"o":"m 92 284 q 166 123 103 183 q 330 63 229 63 q 457 92 401 63 q 540 164 512 121 l 605 119 q 492 18 558 53 q 330 -16 426 -16 q 196 8 257 -16 q 90 76 134 32 q 21 180 46 120 q -2 315 -2 241 q 19 447 -2 387 q 83 553 41 508 q 184 622 124 597 q 318 647 244 647 q 459 619 398 647 q 559 545 519 592 q 619 430 600 497 q 638 284 638 364 l 92 284 m 540 363 q 465 517 524 466 q 318 568 405 568 q 235 553 273 568 q 168 511 197 538 q 119 446 139 484 q 94 363 99 408 l 540 363 m 505 758 l 379 758 l 379 885 l 505 885 l 505 758 m 252 758 l 126 758 l 126 885 l 252 885 l 252 758 "},"m":{"x_min":0,"x_max":632,"ha":758,"o":"m 632 0 l 539 0 l 539 454 q 520 538 539 508 q 465 568 501 568 q 387 512 412 568 q 363 356 363 456 l 363 0 l 269 0 l 269 454 q 249 538 269 508 q 194 568 230 568 q 141 548 161 568 q 110 498 122 528 q 96 430 99 467 q 93 356 93 393 l 93 0 l 0 0 l 0 632 l 93 632 l 92 540 q 219 647 121 647 q 345 554 312 647 q 475 647 391 647 q 594 599 556 647 q 632 454 632 551 l 632 0 "},"Е":{"x_min":33,"x_max":598.71875,"ha":758,"o":"m 598 0 l 33 0 l 33 885 l 598 885 l 598 806 l 126 806 l 126 489 l 474 489 l 474 410 l 126 410 l 126 79 l 598 79 l 598 0 "},"Э":{"x_min":-5,"x_max":645,"ha":758,"o":"m 75 263 q 305 63 140 63 q 370 72 341 63 q 424 97 400 81 q 466 136 448 114 q 499 185 485 158 q 537 291 525 233 q 551 410 548 350 l 156 410 l 156 489 l 551 489 q 533 610 547 550 q 489 717 518 670 q 415 792 460 763 q 305 821 370 821 q 217 803 258 821 q 145 755 175 786 q 96 683 114 724 q 79 594 79 642 l 0 594 l 0 885 l 79 885 l 79 781 q 165 870 108 841 q 305 900 223 900 q 463 861 398 900 q 568 759 527 823 q 626 612 608 695 q 645 441 645 530 q 637 324 645 381 q 612 217 629 268 q 568 123 594 166 q 503 50 541 81 q 416 1 465 19 q 305 -16 367 -16 q 108 50 186 -16 q -5 231 29 117 l 75 263 "},"ю":{"x_min":33,"x_max":632,"ha":758,"o":"m 33 632 l 126 632 l 126 356 l 254 356 q 442 647 266 647 q 632 315 632 647 q 442 -16 632 -16 q 254 277 263 -16 l 126 277 l 126 0 l 33 0 l 33 632 m 442 59 q 539 315 539 59 q 442 570 539 570 q 347 315 347 570 q 442 59 347 59 "},"á":{"x_min":0,"x_max":600,"ha":758,"o":"m 0 170 q 29 270 0 230 q 108 334 59 311 q 219 368 156 357 q 346 379 281 379 q 391 378 371 379 q 429 376 411 377 q 466 372 447 374 q 506 368 484 370 l 506 413 q 485 489 506 459 q 436 536 465 519 q 375 560 407 553 q 321 568 343 568 q 191 549 250 568 q 80 498 131 530 l 38 568 q 165 624 94 602 q 321 647 236 647 q 422 633 373 647 q 512 593 472 620 q 576 520 552 565 q 600 413 600 476 l 600 0 l 506 0 l 506 105 q 451 51 482 74 q 386 14 420 28 q 318 -8 352 0 q 254 -16 284 -16 q 64 32 128 -16 q 0 170 0 80 m 254 63 q 358 80 312 63 q 437 123 405 97 q 488 178 470 149 q 506 232 506 208 l 506 292 q 419 299 460 298 q 346 300 377 300 q 250 293 296 300 q 169 271 204 286 q 113 231 134 255 q 93 170 93 206 q 131 96 93 130 q 254 63 170 63 m 482 849 l 189 685 l 164 729 l 437 924 l 482 849 "},"×":{"x_min":66.46875,"x_max":567,"ha":758,"o":"m 567 521 l 369 324 l 567 126 l 512 74 l 316 271 l 119 74 l 66 126 l 262 324 l 66 521 l 119 574 l 316 376 l 512 574 l 567 521 "},"K":{"x_min":33,"x_max":627.875,"ha":758,"o":"m 627 0 l 513 0 l 219 433 l 126 328 l 126 0 l 33 0 l 33 885 l 126 885 l 126 454 l 505 885 l 627 885 l 280 498 l 627 0 "},"7":{"x_min":33,"x_max":623.40625,"ha":758,"o":"m 623 802 q 489 625 539 712 q 412 442 439 537 q 375 239 385 347 q 365 0 366 130 l 267 0 q 280 232 268 123 q 321 441 292 341 q 403 630 351 540 q 533 806 454 721 l 112 806 l 112 632 l 33 632 l 33 885 l 623 885 l 623 802 "},"п":{"x_min":33,"x_max":599,"ha":758,"o":"m 599 0 l 505 0 l 505 553 l 126 553 l 126 0 l 33 0 l 33 632 l 599 632 l 599 0 "},"¨":{"x_min":126.15625,"x_max":505,"ha":758,"o":"m 505 758 l 379 758 l 379 885 l 505 885 l 505 758 m 252 758 l 126 758 l 126 885 l 252 885 l 252 758 "},"Y":{"x_min":-13.8125,"x_max":645.828125,"ha":758,"o":"m 645 806 l 573 806 l 363 381 l 363 79 l 505 79 l 505 0 l 125 0 l 125 79 l 269 79 l 269 381 l 58 806 l -13 806 l -13 885 l 235 885 l 235 806 l 162 806 l 316 472 l 469 806 l 396 806 l 396 885 l 645 885 l 645 806 "},"E":{"x_min":33,"x_max":598.71875,"ha":758,"o":"m 598 0 l 33 0 l 33 885 l 598 885 l 598 806 l 126 806 l 126 489 l 474 489 l 474 410 l 126 410 l 126 79 l 598 79 l 598 0 "},"Ô":{"x_min":-22,"x_max":656,"ha":758,"o":"m 656 441 q 637 269 656 352 q 579 123 619 186 q 474 22 539 60 q 317 -16 409 -16 q 159 22 224 -16 q 54 123 94 60 q -4 269 13 186 q -22 441 -22 352 q -4 612 -22 530 q 54 759 13 695 q 160 861 95 823 q 317 900 225 900 q 473 861 408 900 q 578 759 538 823 q 637 612 618 695 q 656 441 656 530 m 562 441 q 545 599 562 528 q 497 719 528 669 q 420 794 466 768 q 316 821 375 821 q 197 787 244 821 q 121 698 150 753 q 82 575 93 643 q 71 441 71 508 q 82 307 71 374 q 121 185 93 239 q 197 97 150 131 q 316 63 244 63 q 436 97 388 63 q 511 185 483 131 q 551 307 540 239 q 562 441 562 374 m 518 985 l 482 940 l 318 1079 l 151 938 l 115 982 l 316 1180 l 518 985 "},"Ï":{"x_min":125.90625,"x_max":505.4375,"ha":758,"o":"m 505 0 l 125 0 l 125 79 l 269 79 l 269 806 l 125 806 l 125 885 l 505 885 l 505 806 l 363 806 l 363 79 l 505 79 l 505 0 m 505 1010 l 379 1010 l 379 1137 l 505 1137 l 505 1010 m 252 1010 l 126 1010 l 126 1137 l 252 1137 l 252 1010 "},"Є":{"x_min":-14,"x_max":637,"ha":758,"o":"m 637 231 q 523 50 602 117 q 325 -16 445 -16 q 214 1 264 -16 q 127 50 165 19 q 62 123 89 81 q 18 217 36 166 q -6 324 1 268 q -14 441 -14 381 q 4 612 -14 530 q 63 759 22 695 q 168 861 103 823 q 326 900 233 900 q 466 870 408 900 q 553 781 524 841 l 553 885 l 632 885 l 632 594 l 553 594 q 535 683 553 642 q 486 755 517 724 q 414 803 455 786 q 326 821 373 821 q 215 792 261 821 q 141 717 170 763 q 97 610 112 670 q 80 489 83 550 l 474 489 l 474 410 l 80 410 q 93 291 82 350 q 131 185 105 233 q 164 136 145 158 q 207 97 183 114 q 260 72 231 81 q 326 63 290 63 q 557 263 491 63 l 637 231 "},"±":{"x_min":0,"x_max":632.109375,"ha":758,"o":"m 632 286 l 354 286 l 354 0 l 279 0 l 279 286 l 0 286 l 0 363 l 279 363 l 279 640 l 354 640 l 354 363 l 632 363 l 632 286 m 632 -126 l 0 -126 l 0 -49 l 632 -49 l 632 -126 "},"ì":{"x_min":126,"x_max":504.4375,"ha":758,"o":"m 504 0 l 126 0 l 126 79 l 268 79 l 268 550 l 126 550 l 126 632 l 362 632 l 362 79 l 504 79 l 504 0 m 474 730 l 446 686 l 155 850 l 200 925 l 474 730 "},"|":{"x_min":269,"x_max":363,"ha":758,"o":"m 363 -126 l 269 -126 l 269 1011 l 363 1011 l 363 -126 "},"§":{"x_min":12.828125,"x_max":625,"ha":758,"o":"m 46 562 q 67 658 46 613 q 138 739 88 702 q 71 807 97 766 q 46 910 46 848 q 67 1006 46 965 q 125 1077 88 1048 q 211 1120 162 1105 q 316 1136 260 1136 q 421 1121 370 1136 q 513 1076 471 1106 q 583 1001 555 1046 q 619 894 610 956 l 531 879 q 461 1013 516 969 q 316 1057 407 1057 q 254 1049 285 1057 q 196 1024 222 1041 q 154 979 170 1006 q 139 910 139 951 q 174 830 139 861 q 265 776 210 800 q 381 730 319 752 q 498 675 444 707 q 588 593 552 642 q 625 466 625 544 q 606 372 625 417 q 547 291 587 327 q 603 220 581 262 q 625 119 625 179 q 602 19 625 65 q 541 -58 580 -26 q 452 -108 503 -90 q 346 -126 402 -126 q 234 -111 288 -126 q 136 -66 181 -96 q 59 9 92 -36 q 12 121 27 56 l 98 143 q 181 1 118 49 q 346 -47 244 -47 q 418 -36 383 -47 q 477 -5 452 -25 q 516 43 501 14 q 531 111 531 72 q 495 207 531 171 q 405 269 459 244 q 288 315 350 294 q 171 366 226 336 q 81 442 117 396 q 46 562 46 487 m 139 563 q 170 482 139 514 q 251 429 202 451 q 357 387 299 406 q 470 341 415 368 q 514 394 497 364 q 531 458 531 423 q 502 545 531 511 q 430 604 474 580 q 332 648 386 629 q 227 690 279 668 q 159 634 180 666 q 139 563 139 602 "},"џ":{"x_min":33,"x_max":599,"ha":758,"o":"m 599 0 l 363 0 l 363 -216 l 269 -216 l 269 0 l 33 0 l 33 632 l 126 632 l 126 79 l 505 79 l 505 632 l 599 632 l 599 0 "},"љ":{"x_min":-94.5,"x_max":640,"ha":758,"o":"m 126 553 l 126 140 q 115 73 126 102 q 84 24 104 44 q 39 -5 64 5 q -15 -16 13 -16 q -61 -12 -42 -16 q -94 -3 -79 -9 l -78 74 q -58 66 -69 68 q -30 63 -47 63 q 33 140 33 63 l 33 632 l 346 632 l 346 379 l 426 379 q 585 333 530 379 q 640 190 640 288 q 585 45 640 91 q 427 0 530 0 l 253 0 l 253 553 l 126 553 m 547 190 q 515 271 547 242 q 427 300 484 300 l 346 300 l 346 79 l 427 79 q 515 108 484 79 q 547 190 547 137 "},"й":{"x_min":33,"x_max":599,"ha":758,"o":"m 33 632 l 126 632 l 126 122 l 468 632 l 599 632 l 599 0 l 505 0 l 505 533 l 148 0 l 33 0 l 33 632 m 510 820 q 316 742 430 742 q 123 820 202 742 l 176 872 q 316 808 240 808 q 457 872 393 808 l 510 820 "},"q":{"x_min":0,"x_max":599,"ha":758,"o":"m 0 315 q 23 448 0 387 q 87 554 46 509 q 188 622 128 598 q 320 647 247 647 q 505 573 418 647 l 505 632 l 599 632 l 599 -253 l 505 -253 l 505 56 q 418 2 465 20 q 320 -16 371 -16 q 188 8 247 -16 q 87 76 128 32 q 23 180 46 120 q 0 315 0 241 m 93 314 q 107 216 93 261 q 151 136 122 170 q 222 82 180 102 q 320 63 265 63 q 419 82 373 63 q 505 145 465 101 l 505 484 q 419 548 465 528 q 320 568 373 568 q 222 548 265 568 q 151 494 180 528 q 107 414 122 460 q 93 314 93 367 "},"b":{"x_min":33,"x_max":632,"ha":758,"o":"m 632 315 q 609 181 632 242 q 545 76 587 120 q 444 8 503 32 q 312 -16 385 -16 q 213 2 260 -16 q 126 56 166 20 l 126 0 l 33 0 l 33 885 l 126 885 l 125 573 q 213 627 166 608 q 312 647 260 647 q 444 622 385 647 q 545 553 503 597 q 609 448 587 509 q 632 315 632 387 m 538 314 q 524 414 538 369 q 481 494 510 460 q 410 548 453 528 q 312 568 368 568 q 126 483 205 568 l 126 145 q 213 82 166 101 q 312 63 259 63 q 410 82 368 63 q 480 136 451 102 q 523 216 508 170 q 538 314 538 261 "},"Ж":{"x_min":-42.984375,"x_max":674.984375,"ha":758,"o":"m 269 0 l 269 351 l 231 419 l 54 0 l -42 0 l 173 499 l -42 885 l 58 885 l 269 491 l 269 885 l 363 885 l 363 491 l 573 885 l 674 885 l 458 499 l 674 0 l 578 0 l 400 419 l 363 351 l 363 0 l 269 0 "},"®":{"x_min":0,"x_max":758,"ha":758,"o":"m 758 632 q 729 487 758 556 q 651 367 701 419 q 531 284 601 315 q 380 253 462 253 q 238 280 307 253 q 116 357 169 307 q 31 476 63 406 q 0 632 0 545 q 29 779 0 709 q 111 899 59 848 q 231 981 162 951 q 380 1011 301 1011 q 524 982 456 1011 q 644 902 592 954 q 727 781 696 851 q 758 632 758 712 m 714 631 q 688 759 714 699 q 617 866 662 820 q 511 939 572 912 q 380 966 450 966 q 250 940 311 966 q 143 870 189 915 q 71 763 97 825 q 45 631 45 702 q 71 499 45 560 q 142 393 97 438 q 248 322 187 348 q 380 297 310 297 q 509 322 448 297 q 616 393 570 348 q 687 499 661 438 q 714 631 714 560 m 587 404 l 460 404 l 342 568 l 319 568 l 319 404 l 222 404 l 222 863 l 403 863 q 470 853 438 863 q 526 826 502 844 q 565 780 551 807 q 579 715 579 753 q 545 620 579 661 q 448 572 512 579 l 587 404 m 483 715 q 463 767 483 746 q 403 789 443 789 l 319 789 l 319 643 l 403 643 q 461 663 440 643 q 483 715 483 683 "},"Н":{"x_min":33,"x_max":599,"ha":758,"o":"m 599 0 l 505 0 l 505 410 l 126 410 l 126 0 l 33 0 l 33 885 l 126 885 l 126 489 l 505 489 l 505 885 l 599 885 l 599 0 "},"ф":{"x_min":-20,"x_max":652,"ha":758,"o":"m 269 503 q 173 568 230 568 q 98 509 123 568 q 74 314 74 451 q 98 120 74 178 q 173 63 123 63 q 269 126 230 63 l 269 503 m 269 42 q 173 -16 233 -16 q 28 69 76 -16 q -20 315 -20 155 q 28 560 -20 474 q 173 647 76 647 q 269 588 233 647 l 269 885 l 363 885 l 362 588 q 458 647 398 647 q 603 560 555 647 q 652 315 652 474 q 603 69 652 155 q 458 -16 555 -16 q 363 42 398 -16 l 363 -253 l 269 -253 l 269 42 m 363 126 q 458 63 401 63 q 533 120 508 63 q 558 314 558 178 q 533 509 558 451 q 458 568 508 568 q 363 503 401 568 l 363 126 "},"л":{"x_min":-17.109375,"x_max":599,"ha":758,"o":"m 599 632 l 599 0 l 505 0 l 505 553 l 220 553 l 220 140 q 207 73 220 102 q 173 24 194 44 q 124 -5 152 5 q 66 -16 96 -16 q -17 1 9 -16 l 1 74 q 22 65 10 68 q 54 63 34 63 q 126 139 126 63 l 126 632 l 599 632 "},"L":{"x_min":33,"x_max":598.71875,"ha":758,"o":"m 598 0 l 33 0 l 33 885 l 126 885 l 126 79 l 598 79 l 598 0 "},"Щ":{"x_min":0,"x_max":715,"ha":758,"o":"m 0 0 l 0 885 l 93 885 l 93 79 l 269 79 l 269 885 l 363 885 l 363 79 l 539 79 l 539 885 l 632 885 l 632 79 l 715 79 l 715 -216 l 632 -216 l 632 0 l 0 0 "}," ":{"x_min":0,"x_max":0,"ha":758},"∑":{"x_min":29.28125,"x_max":599,"ha":758,"o":"m 599 0 l 29 0 l 29 79 l 251 442 l 29 805 l 29 885 l 599 885 l 599 586 l 516 586 l 516 806 l 139 806 l 360 442 l 139 79 l 516 79 l 516 299 l 599 299 l 599 0 "},"À":{"x_min":-40.015625,"x_max":674.828125,"ha":758,"o":"m 674 0 l 575 0 l 491 253 l 141 253 l 59 0 l -40 0 l 254 885 l 380 885 l 674 0 m 465 335 l 316 791 l 168 335 l 465 335 m 474 983 l 446 939 l 155 1103 l 200 1178 l 474 983 "},"+":{"x_min":0.28125,"x_max":632.71875,"ha":758,"o":"m 632 285 l 356 285 l 356 9 l 277 9 l 277 285 l 0 285 l 0 364 l 277 364 l 277 640 l 356 640 l 356 364 l 632 364 l 632 285 "},"½":{"x_min":0.140625,"x_max":633,"ha":758,"o":"m 632 862 l 65 -18 l 1 22 l 569 905 l 632 862 m 633 275 q 610 206 633 237 q 559 151 599 187 q 518 114 542 136 q 464 61 495 92 l 565 61 l 565 111 l 632 111 l 632 0 l 356 0 l 356 52 l 527 214 q 559 274 559 247 q 540 310 559 297 q 493 323 521 323 q 415 230 415 323 l 346 230 q 493 387 346 387 q 588 359 550 387 q 633 275 633 326 m 264 506 l 67 506 l 67 567 l 129 567 l 129 763 q 82 703 115 728 q 0 678 50 678 l 0 745 q 43 755 21 745 q 85 783 66 764 q 116 826 104 801 q 129 885 129 852 l 203 885 l 203 567 l 264 567 l 264 506 "},"Ë":{"x_min":33,"x_max":598.71875,"ha":758,"o":"m 598 0 l 33 0 l 33 885 l 598 885 l 598 806 l 126 806 l 126 489 l 474 489 l 474 410 l 126 410 l 126 79 l 598 79 l 598 0 m 505 1010 l 379 1010 l 379 1137 l 505 1137 l 505 1010 m 252 1010 l 126 1010 l 126 1137 l 252 1137 l 252 1010 "},"'":{"x_min":252.984375,"x_max":379.125,"ha":758,"o":"m 379 885 l 349 567 l 280 567 l 252 885 l 379 885 "},"Р":{"x_min":33,"x_max":630,"ha":758,"o":"m 630 632 q 550 441 630 503 q 325 379 470 379 l 126 379 l 126 0 l 33 0 l 33 885 l 324 885 q 550 821 470 885 q 630 632 630 758 m 537 632 q 479 764 537 723 q 325 806 421 806 l 126 806 l 126 458 l 325 458 q 479 499 421 458 q 537 632 537 540 "},"щ":{"x_min":0,"x_max":715,"ha":758,"o":"m 0 0 l 0 632 l 93 632 l 93 79 l 269 79 l 269 632 l 363 632 l 363 79 l 539 79 l 539 632 l 632 632 l 632 82 l 715 82 l 715 -216 l 632 -216 l 632 0 l 0 0 "},"ð":{"x_min":-14,"x_max":644,"ha":758,"o":"m 157 662 l 266 771 q 209 798 238 786 q 148 821 180 810 l 178 900 q 327 833 258 869 l 424 931 l 477 876 l 395 793 q 495 715 449 758 q 574 619 541 672 q 625 503 606 567 q 644 364 644 440 q 619 206 644 276 q 549 86 595 136 q 438 10 503 36 q 291 -16 373 -16 q 69 49 152 -16 q -14 239 -14 115 q 25 366 -14 311 q 133 462 64 421 q 294 532 202 504 q 492 578 386 561 q 423 662 464 625 q 334 732 382 700 l 210 608 l 157 662 m 551 363 q 545 434 551 400 q 528 500 540 468 q 347 465 430 489 q 205 408 264 442 q 112 333 145 375 q 79 239 79 290 q 135 111 79 160 q 291 63 192 63 q 401 84 353 63 q 483 145 449 106 q 533 240 516 185 q 551 363 551 296 "},"ä":{"x_min":0,"x_max":600,"ha":758,"o":"m 0 170 q 29 270 0 230 q 108 334 59 311 q 219 368 156 357 q 346 379 281 379 q 391 378 371 379 q 429 376 411 377 q 466 372 447 374 q 506 368 484 370 l 506 413 q 485 489 506 459 q 436 536 465 519 q 375 560 407 553 q 321 568 343 568 q 191 549 250 568 q 80 498 131 530 l 38 568 q 165 624 94 602 q 321 647 236 647 q 422 633 373 647 q 512 593 472 620 q 576 520 552 565 q 600 413 600 476 l 600 0 l 506 0 l 506 105 q 451 51 482 74 q 386 14 420 28 q 318 -8 352 0 q 254 -16 284 -16 q 64 32 128 -16 q 0 170 0 80 m 254 63 q 358 80 312 63 q 437 123 405 97 q 488 178 470 149 q 506 232 506 208 l 506 292 q 419 299 460 298 q 346 300 377 300 q 250 293 296 300 q 169 271 204 286 q 113 231 134 255 q 93 170 93 206 q 131 96 93 130 q 254 63 170 63 m 505 758 l 379 758 l 379 885 l 505 885 l 505 758 m 252 758 l 126 758 l 126 885 l 252 885 l 252 758 "},"Т":{"x_min":0,"x_max":632,"ha":758,"o":"m 632 586 l 553 586 l 553 806 l 363 806 l 363 79 l 505 79 l 505 0 l 125 0 l 125 79 l 269 79 l 269 806 l 79 806 l 79 586 l 0 586 l 0 885 l 632 885 l 632 586 "},"¹":{"x_min":0.140625,"x_max":264.046875,"ha":758,"o":"m 264 506 l 67 506 l 67 567 l 129 567 l 129 763 q 82 703 115 729 q 0 678 50 678 l 0 746 q 43 755 21 746 q 85 783 66 764 q 116 827 104 801 q 129 885 129 852 l 203 885 l 203 567 l 264 567 l 264 506 "},"£":{"x_min":33.171875,"x_max":663.953125,"ha":758,"o":"m 33 482 l 160 482 l 160 661 q 175 757 160 712 q 219 832 190 801 q 288 882 247 864 q 381 900 328 900 q 448 888 416 900 q 506 855 480 876 q 550 801 531 833 q 577 729 569 770 l 493 710 q 450 796 478 771 q 381 821 422 821 q 284 779 315 821 q 253 661 253 737 l 253 482 l 379 482 l 379 403 l 253 403 l 253 219 q 235 129 253 165 q 190 79 218 93 l 330 79 q 590 230 514 79 l 663 190 q 531 46 619 93 q 330 0 442 0 l 33 0 l 33 79 l 75 79 q 114 90 98 79 q 141 118 130 101 q 155 154 151 134 q 160 189 160 173 l 160 403 l 33 403 l 33 482 "},"W":{"x_min":-42.734375,"x_max":674.828125,"ha":758,"o":"m 674 885 l 515 0 l 405 0 l 315 431 l 223 0 l 115 0 l -42 885 l 55 885 l 180 156 l 269 632 l 360 632 l 450 156 l 575 885 l 674 885 "},"а":{"x_min":-1,"x_max":599,"ha":758,"o":"m -1 170 q 28 270 -1 230 q 107 334 58 311 q 218 368 155 357 q 345 379 280 379 q 390 378 370 379 q 428 376 410 377 q 465 372 446 374 q 505 368 483 370 l 505 413 q 484 489 505 459 q 435 536 464 519 q 374 560 406 553 q 320 568 342 568 q 190 549 249 568 q 79 498 130 530 l 37 568 q 164 624 93 602 q 320 647 235 647 q 421 633 372 647 q 511 593 471 620 q 575 520 551 565 q 599 413 599 476 l 599 0 l 505 0 l 505 105 q 450 51 481 74 q 385 14 419 28 q 317 -8 351 0 q 253 -16 283 -16 q 63 32 127 -16 q -1 170 -1 80 m 253 63 q 357 80 311 63 q 436 123 404 97 q 487 178 469 149 q 505 232 505 208 l 505 292 q 418 299 459 298 q 345 300 376 300 q 249 293 295 300 q 168 271 203 286 q 112 231 133 255 q 92 170 92 206 q 130 96 92 130 q 253 63 169 63 "},"v":{"x_min":-21.03125,"x_max":653.125,"ha":758,"o":"m 653 632 l 379 0 l 254 0 l -21 632 l 90 632 l 316 77 l 541 632 l 653 632 "},">":{"x_min":96.984375,"x_max":497.140625,"ha":758,"o":"m 497 324 l 149 -23 l 96 30 l 389 324 l 96 616 l 149 671 l 497 324 "},"Ї":{"x_min":125.90625,"x_max":505.4375,"ha":758,"o":"m 505 0 l 125 0 l 125 79 l 269 79 l 269 806 l 125 806 l 125 885 l 505 885 l 505 806 l 363 806 l 363 79 l 505 79 l 505 0 m 505 1010 l 379 1010 l 379 1137 l 505 1137 l 505 1010 m 252 1010 l 126 1010 l 126 1137 l 252 1137 l 252 1010 "},"û":{"x_min":33,"x_max":599,"ha":758,"o":"m 33 632 l 126 632 l 126 240 q 162 109 126 156 q 281 63 199 63 q 374 86 333 63 q 445 150 416 110 q 489 241 474 189 q 505 348 505 292 l 505 632 l 599 632 l 599 0 l 505 0 l 505 157 q 266 -16 438 -16 q 33 241 33 -16 l 33 632 m 518 733 l 482 688 l 318 827 l 151 686 l 115 730 l 316 928 l 518 733 "},"Ð":{"x_min":-79.59375,"x_max":661,"ha":758,"o":"m 661 442 q 640 270 661 351 q 578 129 620 190 q 472 34 537 69 q 320 0 408 0 l 33 0 l 33 411 l -79 411 l -79 490 l 33 490 l 33 885 l 320 885 q 478 848 413 885 q 584 751 543 812 q 643 610 625 690 q 661 442 661 530 m 568 442 q 502 711 568 616 q 320 806 437 806 l 126 806 l 126 490 l 298 490 l 298 411 l 126 411 l 126 79 l 320 79 q 502 174 437 79 q 568 442 568 269 "},"Х":{"x_min":-15.59375,"x_max":647.03125,"ha":758,"o":"m 647 0 l 396 0 l 396 79 l 455 79 l 316 369 l 176 79 l 236 79 l 236 0 l -15 0 l -15 79 l 70 79 l 262 445 l 73 806 l 0 806 l 0 885 l 252 885 l 252 806 l 179 806 l 316 522 l 450 806 l 379 806 l 379 885 l 632 885 l 632 806 l 555 806 l 370 445 l 560 79 l 647 79 l 647 0 "},"r":{"x_min":0,"x_max":628.015625,"ha":758,"o":"m 597 542 q 478 568 547 568 q 376 543 421 568 q 300 479 331 519 q 252 388 269 439 q 236 283 236 337 l 236 79 l 379 79 l 379 0 l 0 0 l 0 79 l 143 79 l 143 552 l 0 552 l 0 632 l 236 632 l 236 473 q 478 647 299 647 q 561 640 526 647 q 628 619 597 634 l 597 542 "},"ж":{"x_min":-11.109375,"x_max":643.109375,"ha":758,"o":"m 182 355 l -11 632 l 92 632 l 269 365 l 269 632 l 363 632 l 363 365 l 539 632 l 643 632 l 449 355 l 643 0 l 543 0 l 396 283 l 363 234 l 363 0 l 269 0 l 269 234 l 235 283 l 88 0 l -11 0 l 182 355 "},"x":{"x_min":-13.5625,"x_max":647.03125,"ha":758,"o":"m 647 0 l 385 0 l 385 82 l 441 82 l 316 265 l 193 82 l 244 82 l 244 0 l -13 0 l -13 82 l 84 82 l 258 320 l 91 549 l 0 549 l 0 632 l 259 632 l 259 549 l 201 549 l 316 376 l 433 549 l 369 549 l 369 632 l 632 632 l 632 549 l 543 549 l 376 320 l 550 82 l 647 82 l 647 0 "},"è":{"x_min":-2.71875,"x_max":638.890625,"ha":758,"o":"m 92 284 q 166 123 103 183 q 330 63 229 63 q 457 92 401 63 q 540 164 512 121 l 605 119 q 492 18 558 53 q 330 -16 426 -16 q 196 8 257 -16 q 90 76 134 32 q 21 180 46 120 q -2 315 -2 241 q 19 447 -2 387 q 83 553 41 508 q 184 622 124 597 q 318 647 244 647 q 459 619 398 647 q 559 545 519 592 q 619 430 600 497 q 638 284 638 364 l 92 284 m 540 363 q 465 517 524 466 q 318 568 405 568 q 235 553 273 568 q 168 511 197 538 q 119 446 139 484 q 94 363 99 408 l 540 363 m 474 730 l 446 686 l 155 850 l 200 925 l 474 730 "},"Ø":{"x_min":-30,"x_max":664,"ha":758,"o":"m -30 127 l 22 184 q -11 305 0 241 q -22 441 -22 370 q -4 612 -22 530 q 54 759 13 695 q 160 861 95 823 q 316 900 225 900 q 468 864 405 900 q 572 766 531 828 l 664 865 l 664 756 l 608 698 q 644 577 632 641 q 656 441 656 512 q 637 269 656 352 q 579 123 619 186 q 474 22 539 60 q 317 -16 409 -16 q 162 18 225 -16 q 60 114 100 53 l -30 19 l -30 127 m 562 441 q 539 625 562 543 l 122 181 q 197 95 150 128 q 316 63 244 63 q 436 97 388 63 q 512 185 483 131 q 551 307 540 239 q 562 441 562 374 m 71 441 q 76 347 71 394 q 93 258 81 300 l 509 700 q 428 789 476 758 q 317 821 380 821 q 197 787 244 821 q 121 698 150 753 q 82 575 93 643 q 71 441 71 508 "},"÷":{"x_min":0,"x_max":632.109375,"ha":758,"o":"m 379 514 l 253 514 l 253 640 l 379 640 l 379 514 m 379 9 l 253 9 l 253 135 l 379 135 l 379 9 m 632 285 l 0 285 l 0 364 l 632 364 l 632 285 "},"с":{"x_min":0,"x_max":608,"ha":758,"o":"m 608 118 q 498 20 568 56 q 333 -16 429 -16 q 197 8 259 -16 q 92 76 136 32 q 24 180 48 120 q 0 315 0 241 q 22 448 0 387 q 86 553 44 509 q 187 622 127 597 q 321 647 247 647 q 380 640 350 647 q 438 619 411 633 q 487 586 465 605 q 520 540 509 566 l 520 632 l 603 632 l 603 378 l 520 378 q 504 455 520 420 q 462 515 489 490 q 399 554 436 540 q 321 568 363 568 q 221 548 264 568 q 150 494 179 528 q 107 414 122 460 q 93 314 93 369 q 109 214 93 260 q 157 135 126 168 q 233 82 189 102 q 333 63 278 63 q 458 90 404 63 q 542 163 513 117 l 608 118 "},"h":{"x_min":33,"x_max":599,"ha":758,"o":"m 599 0 l 505 0 l 505 389 q 468 521 505 474 q 349 568 431 568 q 256 544 298 568 q 185 480 214 520 q 141 390 156 441 q 126 283 126 338 l 126 0 l 33 0 l 33 885 l 126 885 l 125 473 q 365 647 193 647 q 599 389 599 647 l 599 0 "},".":{"x_min":252.984375,"x_max":379.125,"ha":758,"o":"m 379 0 l 252 0 l 252 126 l 379 126 l 379 0 "},"f":{"x_min":125.90625,"x_max":632.265625,"ha":758,"o":"m 632 553 l 363 553 l 363 79 l 505 79 l 505 0 l 125 0 l 125 79 l 269 79 l 269 553 l 125 553 l 125 632 l 269 632 q 336 831 269 762 q 540 900 404 900 q 594 897 572 900 q 632 893 616 895 l 632 814 q 591 818 612 816 q 540 821 569 821 q 407 775 451 821 q 363 632 363 730 l 632 632 l 632 553 "},"A":{"x_min":-40.015625,"x_max":674.828125,"ha":758,"o":"m 674 0 l 575 0 l 491 253 l 141 253 l 59 0 l -40 0 l 254 885 l 380 885 l 674 0 m 465 335 l 316 791 l 168 335 l 465 335 "},"O":{"x_min":-22,"x_max":656,"ha":758,"o":"m 656 441 q 637 269 656 352 q 579 123 619 186 q 474 22 539 60 q 317 -16 409 -16 q 159 22 224 -16 q 54 123 94 60 q -4 269 13 186 q -22 441 -22 352 q -4 612 -22 530 q 54 759 13 695 q 160 861 95 823 q 317 900 225 900 q 473 861 408 900 q 578 759 538 823 q 637 612 618 695 q 656 441 656 530 m 562 441 q 545 599 562 528 q 497 719 528 669 q 420 794 466 768 q 316 821 375 821 q 197 787 244 821 q 121 698 150 753 q 82 575 93 643 q 71 441 71 508 q 82 307 71 374 q 121 185 93 239 q 197 97 150 131 q 316 63 244 63 q 436 97 388 63 q 511 185 483 131 q 551 307 540 239 q 562 441 562 374 "},"3":{"x_min":18.796875,"x_max":624,"ha":758,"o":"m 624 243 q 600 137 624 185 q 536 55 576 89 q 445 2 497 21 q 336 -16 393 -16 q 217 1 272 -16 q 119 52 161 19 q 50 138 77 86 q 18 256 24 189 l 109 268 q 180 114 117 166 q 336 63 243 63 q 411 76 376 63 q 473 113 446 89 q 514 171 499 138 q 530 243 530 203 q 512 332 530 298 q 463 386 495 366 q 382 412 430 405 q 271 419 334 419 l 271 498 q 361 505 318 498 q 438 531 404 513 q 492 579 471 549 q 514 655 514 609 q 464 775 514 730 q 336 821 415 821 q 177 769 237 821 q 118 606 118 717 l 30 606 q 52 730 30 675 q 114 822 74 785 q 211 880 154 860 q 336 900 267 900 q 442 883 393 900 q 528 835 491 866 q 586 759 565 804 q 607 655 607 714 q 561 530 607 580 q 433 467 516 480 q 516 440 480 460 q 575 389 551 420 q 611 321 598 359 q 624 243 624 284 "},"9":{"x_min":-16,"x_max":640,"ha":758,"o":"m -16 583 q 8 715 -16 657 q 75 814 32 773 q 178 877 119 855 q 305 900 237 900 q 462 861 398 900 q 566 759 527 823 q 622 613 605 695 q 640 442 640 531 q 616 269 640 352 q 546 123 592 186 q 428 21 499 59 q 265 -16 358 -16 q 46 75 133 -16 l 107 130 q 177 79 137 96 q 265 63 218 63 q 390 90 336 63 q 481 165 444 117 q 536 282 518 214 q 554 433 554 350 q 517 368 543 398 q 456 315 491 337 q 381 280 422 293 q 300 267 340 267 q 173 290 231 267 q 73 356 114 314 q 7 456 31 397 q -16 583 -16 514 m 78 583 q 93 489 78 533 q 136 413 108 445 q 207 363 165 381 q 301 346 248 346 q 395 362 352 346 q 469 409 438 379 q 516 481 499 438 q 533 575 533 523 q 519 670 533 625 q 477 748 505 714 q 406 801 448 782 q 305 821 364 821 q 213 804 255 821 q 141 757 172 787 q 94 682 111 726 q 78 583 78 637 "},"l":{"x_min":126,"x_max":504.4375,"ha":758,"o":"m 504 0 l 126 0 l 126 79 l 268 79 l 268 806 l 126 806 l 126 885 l 362 885 l 362 79 l 504 79 l 504 0 "},"4":{"x_min":-0.078125,"x_max":632.109375,"ha":758,"o":"m 632 0 l 252 0 l 252 79 l 396 79 l 396 253 l 0 253 l 0 333 l 370 885 l 489 885 l 489 334 l 632 334 l 632 253 l 489 253 l 489 79 l 632 79 l 632 0 m 396 334 l 396 775 l 98 334 l 396 334 "},"Ъ":{"x_min":-0.0625,"x_max":630,"ha":758,"o":"m 0 885 l 253 885 l 253 505 l 373 505 q 562 441 495 505 q 630 250 630 377 q 562 61 630 123 q 371 0 495 0 l 160 0 l 160 806 l 0 806 l 0 885 m 537 249 q 493 380 537 335 q 374 426 449 426 l 253 426 l 253 79 l 374 79 q 493 122 449 79 q 537 249 537 165 "},"Ü":{"x_min":33,"x_max":599,"ha":758,"o":"m 599 315 q 582 178 599 239 q 530 74 565 117 q 442 7 495 31 q 315 -16 388 -16 q 188 7 241 -16 q 100 74 134 31 q 49 179 66 117 q 33 316 33 241 l 33 885 l 126 885 l 126 314 q 133 229 126 274 q 160 148 140 185 q 218 87 181 111 q 315 63 255 63 q 412 87 374 63 q 470 148 450 111 q 498 229 491 185 q 505 314 505 274 l 505 885 l 599 885 l 599 315 m 505 1010 l 379 1010 l 379 1137 l 505 1137 l 505 1010 m 252 1010 l 126 1010 l 126 1137 l 252 1137 l 252 1010 "},"à":{"x_min":0,"x_max":600,"ha":758,"o":"m 0 170 q 29 270 0 230 q 108 334 59 311 q 219 368 156 357 q 346 379 281 379 q 391 378 371 379 q 429 376 411 377 q 466 372 447 374 q 506 368 484 370 l 506 413 q 485 489 506 459 q 436 536 465 519 q 375 560 407 553 q 321 568 343 568 q 191 549 250 568 q 80 498 131 530 l 38 568 q 165 624 94 602 q 321 647 236 647 q 422 633 373 647 q 512 593 472 620 q 576 520 552 565 q 600 413 600 476 l 600 0 l 506 0 l 506 105 q 451 51 482 74 q 386 14 420 28 q 318 -8 352 0 q 254 -16 284 -16 q 64 32 128 -16 q 0 170 0 80 m 254 63 q 358 80 312 63 q 437 123 405 97 q 488 178 470 149 q 506 232 506 208 l 506 292 q 419 299 460 298 q 346 300 377 300 q 250 293 296 300 q 169 271 204 286 q 113 231 134 255 q 93 170 93 206 q 131 96 93 130 q 254 63 170 63 m 474 730 l 446 686 l 155 850 l 200 925 l 474 730 "},"ó":{"x_min":-14,"x_max":648,"ha":758,"o":"m 648 313 q 624 179 648 239 q 557 75 601 119 q 452 8 513 32 q 316 -16 391 -16 q 181 8 242 -16 q 76 75 120 32 q 9 179 32 119 q -14 313 -14 239 q 9 447 -14 385 q 76 553 32 509 q 181 622 120 597 q 316 647 242 647 q 452 622 391 647 q 557 553 513 597 q 624 447 601 509 q 648 313 648 385 m 555 313 q 539 413 555 367 q 491 494 523 459 q 416 548 460 528 q 316 568 371 568 q 216 548 260 568 q 141 494 171 528 q 94 413 110 459 q 79 313 79 367 q 94 213 79 259 q 141 134 110 167 q 216 82 171 101 q 316 63 260 63 q 416 82 371 63 q 491 134 460 101 q 539 213 523 167 q 555 313 555 259 m 482 849 l 189 685 l 164 729 l 437 924 l 482 849 "},"\r":{"x_min":0,"x_max":0,"ha":758}}}
